<?xml version="1.0" encoding="UTF-8"?>
<svg id="a" data-name="Layer 1" xmlns="http://www.w3.org/2000/svg" width="147.19" height="138.74" viewBox="0 0 147.19 138.74">
  <defs>
    <style>
      .b {
        stroke-width: 0px;
      }
    </style>
  </defs>
  <path class="b" d="m.05,102.89c1.41-1.45,3.32-1.79,6.4-2.95C60.59,85.09,59.13,51.49,70.73,3.05c1.81-6.04,1.99-1.38,1.97,1.86-1.14,44.31-.76,89.48-7.83,133.2-1.44,2.31-3.66-2.35-4.75-3.84-10.7-18.96-33.43-25.53-54.73-29.16-1.58-.4-5.71-.76-5.38-2.17l.03-.05Z"/>
  <path class="b" d="m147.15,102.94c.25.56-.51,1.03-2.02,1.45-.89.25-2.04.49-3.31.73-21.26,3.77-43.72,10.23-54.65,29-1.17,1.61-3.34,6.1-4.78,3.88-7.17-43.6-7.06-88.9-7.87-133.06,0-3.32.21-8.16,2-1.9,11.33,49.18,10.23,81.85,64.52,96.95,3.04,1.16,4.86,1.52,6.09,2.9l.02.05Z"/>
</svg>