<?xml version="1.0" standalone="no"?>
<!DOCTYPE svg PUBLIC "-//W3C//DTD SVG 20010904//EN"
 "http://www.w3.org/TR/2001/REC-SVG-20010904/DTD/svg10.dtd">
<svg version="1.0" xmlns="http://www.w3.org/2000/svg"
 width="1024.000000pt" height="1024.000000pt" viewBox="0 0 1024.000000 1024.000000"
 preserveAspectRatio="xMidYMid meet">

<g transform="translate(0.000000,1024.000000) scale(0.100000,-0.100000)"
fill="#000000" stroke="none">
<path d="M4865 10234 c-383 -28 -496 -42 -735 -90 -1192 -238 -2225 -865
-3007 -1824 -392 -481 -731 -1141 -908 -1770 -131 -465 -185 -871 -185 -1395
0 -352 21 -583 81 -899 92 -486 224 -874 450 -1331 260 -525 575 -961 996
-1377 276 -273 479 -440 769 -633 218 -146 351 -223 599 -345 231 -114 381
-175 649 -265 361 -120 706 -192 1136 -237 160 -16 653 -16 825 0 827 81 1572
334 2265 770 703 443 1321 1085 1733 1804 353 616 565 1255 652 1968 26 210
31 733 11 988 -34 408 -111 789 -241 1177 -396 1186 -1195 2156 -2305 2798
-90 52 -353 187 -364 187 -4 0 30 -42 76 -93 128 -142 162 -186 255 -324 95
-143 215 -379 264 -522 18 -52 42 -102 53 -111 432 -359 704 -650 968 -1035
169 -248 340 -573 457 -868 178 -450 270 -856 311 -1371 30 -384 -6 -895 -90
-1268 -196 -868 -609 -1618 -1240 -2248 -680 -680 -1550 -1130 -2507 -1295
-300 -51 -751 -68 -1073 -40 -957 83 -1827 447 -2595 1086 -133 111 -407 386
-526 529 -599 716 -941 1505 -1055 2430 -26 207 -26 762 -1 975 80 675 275
1266 600 1821 599 1024 1614 1794 2757 2093 398 104 764 151 1175 151 528 0
971 -96 1280 -277 311 -182 566 -497 688 -848 19 -55 38 -115 41 -132 l8 -33
-1285 -2 -1285 -3 -27 -25 c-44 -41 -58 -77 -53 -137 3 -38 11 -60 29 -79 53
-57 -32 -54 1383 -54 l1304 0 6 -37 c15 -92 26 -237 26 -345 l0 -118 -1092 -2
c-1082 -3 -1093 -3 -1128 -24 -56 -32 -83 -80 -77 -137 5 -55 29 -93 78 -122
33 -20 54 -20 1118 -23 l1084 -2 -7 -63 c-9 -90 -34 -232 -59 -339 l-23 -93
-819 -5 c-635 -4 -825 -8 -842 -18 -45 -25 -74 -77 -75 -131 0 -62 22 -102 76
-133 l41 -23 762 -5 762 -5 -59 -135 c-33 -74 -86 -182 -118 -240 l-57 -105
-455 -5 c-406 -4 -458 -7 -487 -22 -101 -56 -98 -214 7 -269 32 -17 63 -19
378 -19 l344 0 -33 -42 c-61 -79 -353 -369 -469 -467 -265 -222 -452 -349
-930 -631 -724 -426 -1032 -645 -1358 -965 -369 -361 -632 -746 -819 -1195
-77 -185 -166 -476 -208 -678 -40 -196 -44 -178 55 -244 113 -76 429 -243 439
-232 4 5 18 72 30 149 28 170 87 405 146 582 205 606 564 1090 1120 1509 211
160 407 287 755 489 566 329 835 511 1149 774 792 663 1246 1514 1342 2511 15
157 15 575 0 740 -54 577 -224 1041 -515 1400 -144 179 -289 310 -489 444
-435 290 -929 422 -1612 431 -148 1 -292 1 -320 -1z"/>
<path d="M3460 8747 c-69 -40 -186 -108 -260 -151 -271 -157 -280 -164 -280
-202 0 -46 20 -92 60 -137 38 -44 66 -47 125 -12 l42 24 88 -157 c49 -86 97
-170 108 -185 10 -16 18 -29 16 -31 -2 -2 -30 -19 -62 -39 -31 -21 -66 -52
-77 -69 -33 -55 -26 -90 45 -226 36 -68 65 -125 65 -126 0 -2 -22 -17 -49 -35
-63 -40 -125 -110 -161 -182 -16 -30 -65 -96 -110 -145 -305 -333 -465 -696
-502 -1136 -37 -453 98 -929 366 -1285 236 -315 542 -553 884 -688 81 -31 96
-35 112 -23 10 7 89 67 177 134 272 207 456 326 1018 659 269 159 655 410 655
425 0 6 -329 10 -890 10 l-890 0 0 -155 0 -155 231 0 232 0 -5 -80 c-4 -69 -9
-87 -34 -123 -36 -52 -102 -87 -164 -87 -161 0 -467 158 -639 329 -95 94 -154
170 -219 285 -177 308 -204 692 -73 1031 32 83 102 213 145 270 25 32 26 33
89 28 82 -7 196 13 253 43 25 13 48 24 52 24 4 0 75 -118 157 -261 83 -144
163 -274 178 -290 33 -34 85 -46 136 -30 20 6 107 52 192 102 85 50 241 143
347 206 106 63 199 125 208 139 9 13 19 44 21 67 6 53 1 64 -195 401 -80 138
-178 307 -217 376 -40 69 -139 242 -222 385 -82 143 -178 310 -213 370 -82
143 -106 174 -146 191 -50 21 -85 17 -149 -17 -70 -37 -50 -55 -176 164 l-92
161 22 15 c79 54 88 89 46 170 -27 55 -67 91 -99 91 -11 0 -77 -33 -146 -73z
m190 -1560 c138 -71 147 -293 14 -376 -25 -17 -66 -33 -91 -37 -151 -22 -283
127 -243 276 38 142 186 206 320 137z"/>
<path d="M4710 6114 c-162 -96 -301 -179 -308 -183 -19 -11 7 -71 44 -100 28
-22 47 -23 99 -6 17 5 26 -4 53 -55 70 -127 100 -142 190 -96 72 36 275 156
294 173 36 32 32 68 -16 159 l-46 86 25 30 c17 20 25 42 25 66 0 40 -32 102
-52 101 -7 0 -146 -79 -308 -175z"/>
<path d="M5840 3986 c-48 -32 -166 -102 -340 -203 -80 -46 -149 -88 -154 -93
-4 -4 37 -38 95 -75 217 -141 440 -320 619 -496 l105 -104 -972 -5 c-962 -5
-972 -5 -999 -26 -94 -70 -96 -190 -5 -251 l34 -23 1094 0 1094 0 69 -107 c39
-59 90 -146 115 -194 38 -73 42 -88 29 -93 -9 -3 -654 -6 -1433 -6 l-1418 0
-33 -22 c-89 -61 -92 -190 -6 -251 l31 -22 1505 -5 1505 -5 24 -65 c22 -62 91
-297 91 -312 0 -5 -726 -8 -1612 -9 -887 0 -1639 -4 -1671 -8 -48 -6 -64 -13
-94 -43 -31 -31 -37 -45 -41 -90 -4 -59 17 -102 71 -142 l28 -21 1692 -5 1692
-5 8 -50 c4 -27 10 -51 11 -53 12 -11 366 179 472 254 l62 43 -28 133 c-78
373 -176 661 -329 968 -232 464 -566 871 -1005 1225 -81 65 -250 185 -261 184
-5 0 -26 -11 -45 -23z"/>
</g>
</svg>
