<?xml version="1.0" encoding="UTF-8"?>
<svg id="a" data-name="Layer 1" xmlns="http://www.w3.org/2000/svg" width="235.34" height="194.48" viewBox="0 0 235.34 194.48">
  <defs>
    <style>
      .b {
        stroke-width: 0px;
      }
    </style>
  </defs>
  <path class="b" d="m0,149.57c-.02-7.28,2.89-15.26,7.3-22.89,13.37-23.11,26.59-46.3,39.88-69.45,6.76-11.78,13.47-23.6,20.34-35.32,6.99-11.93,17.35-19.13,31.05-21.36,21.68-3.54,42.7,10.39,47.53,31.46,5.57,24.27-12.05,48.41-36.88,50.55-3.3.28-6.64.37-9.88,1-19.08,3.72-29.98,24.02-22.64,41.98,7.61,18.62,31.44,25.14,47.49,13.02,4.02-3.03,7.15-6.78,9.65-11.14,5.57-9.69,13.59-16.41,24.4-19.53,21.86-6.31,46.39,6.19,51.5,29.61,3.88,17.75-1.11,33.01-15.43,44.42-17.16,13.68-42.81,10.36-56.84-6.87-1.16-1.43-2.28-2.9-3.27-4.45-10.28-15.97-31.97-19.58-46.9-7.8-3.57,2.82-6.38,6.24-8.65,10.16-6.36,10.96-15.55,18.26-28.07,20.72C24.87,198.75-.42,178.95,0,149.57Z"/>
  <path class="b" d="m185.79,40.43c.22-14.13,11.36-24.85,25.59-24.63,13.19.2,24.17,11.76,23.96,25.23-.21,13.47-11.65,24.41-25.28,24.17-13.59-.23-24.47-11.35-24.26-24.77Z"/>
</svg>