<?xml version="1.0" encoding="UTF-8"?>
<svg id="a" data-name="图层 1" xmlns="http://www.w3.org/2000/svg" width="71.6mm" height="71.6mm" viewBox="0 0 202.96 202.96">
  <defs>
    <style>
      .b {
        stroke-width: 0px;
      }
    </style>
  </defs>
  <path class="b" d="m28.1,90.17c-.56,3.69-.86,7.46-.86,11.31,0,13.28,3.49,25.74,9.61,36.53-6.11-10.78-9.61-23.25-9.61-36.53,0-3.84.29-7.62.86-11.3Z"/>
  <path class="b" d="m82.63,173.29h0s.04.01.07.02h0s-.04-.01-.07-.02Z"/>
  <path class="b" d="m51.29,156.18c8.18,7.5,18.05,13.19,28.97,16.44,0,0,0,0,0,0-10.92-3.25-20.79-8.94-28.97-16.44Z"/>
  <path class="b" d="m118.17,173.81h0c-5.36,1.23-10.94,1.91-16.68,1.91-4.77,0-9.43-.47-13.96-1.33h0c4.52.86,9.18,1.33,13.96,1.33,5.74,0,11.32-.67,16.68-1.91Z"/>
  <path class="b" d="m121.53,172.95h0c24.2-6.77,43.42-25.48,50.86-49.4-7.44,23.91-26.65,42.62-50.86,49.4Z"/>
  <path class="b" d="m153.98,48.99c-13.43-13.43-31.99-21.74-52.5-21.74-15.38,0-29.66,4.67-41.51,12.68,11.85-8,26.13-12.68,41.51-12.68,20.5,0,39.06,8.31,52.5,21.74Z"/>
  <path class="b" d="m101.48,0C45.52,0,0,45.52,0,101.48s45.52,101.48,101.48,101.48,101.48-45.52,101.48-101.48S157.44,0,101.48,0Zm0,200.69c-54.71,0-99.21-44.51-99.21-99.21S46.78,2.27,101.48,2.27s99.21,44.51,99.21,99.21-44.51,99.21-99.21,99.21Z"/>
  <path class="b" d="m13.43,102.44c.41,0,.72-.11.93-.36.21-.25.32-.63.33-1.14l.04-2.27-2.63-.05-.04,2.3c0,.49.1.87.33,1.12.23.25.58.38,1.05.39Z"/>
  <path class="b" d="m118.72,183.35c-.55-.52-1.2-.71-1.96-.56-.76.15-1.29.57-1.6,1.26-.31.69-.36,1.57-.15,2.64.2,1.05.58,1.83,1.12,2.34.54.51,1.19.69,1.95.54.76-.15,1.3-.56,1.61-1.23.31-.67.37-1.54.16-2.59-.21-1.07-.59-1.87-1.13-2.39Z"/>
  <path class="b" d="m179.18,138.84c-.97-.51-1.82-.72-2.57-.63-.75.1-1.31.48-1.67,1.17-.36.68-.37,1.36-.03,2.03.34.67.99,1.27,1.96,1.78.95.5,1.79.7,2.52.6.74-.1,1.29-.49,1.65-1.18.36-.68.38-1.36.06-2.03-.33-.67-.96-1.25-1.91-1.76Z"/>
  <path class="b" d="m185.93,119c-1.06-.27-1.94-.26-2.65.01-.7.27-1.15.79-1.34,1.54-.19.75-.03,1.41.46,1.98.49.57,1.27.99,2.33,1.26,1.04.26,1.9.25,2.59-.02.69-.28,1.13-.79,1.31-1.54.19-.75.04-1.41-.44-1.98-.48-.57-1.24-.98-2.28-1.24Z"/>
  <path class="b" d="m101.48,4.93C48.24,4.93,4.93,48.24,4.93,101.48s43.31,96.55,96.55,96.55,96.55-43.31,96.55-96.55S154.72,4.93,101.48,4.93Zm87.29,92.84l3.75-.13.03.95.03.95-3.71.13-6.05,3.38-.04-1.12-.04-1.13,4.21-2.04-4.34-1.62-.04-1.08-.04-1.07,6.22,2.79Zm-30.6-48.79c.27-.26-.06-1.19.01-1.34.09-.21.3.02.54.2.43.32.8.64,1.03.76.48.26,1.4-.3,1.92-.43.17-.04.3-.2.1-.47-.06-.08-.56-.45-.76-.57-.19-.11-.58-.4-.77-.59-.16-.15-.66-.29-.75-.38-.16-.17-.36-.25-.35-.64,0-.1-.09-.24-.12-.33-.04-.17.25-.33.33-.41.08-.08.39-.29.61-.38.22-.09.79.07.98.26.08.09.23.48.31.57.08.09.48.11.69.18.24.08.44.3.66.41.27.15.34.14.48.18.14.04.21-.03.3-.06.11-.04.33-.28.46-.32.12-.04.38-.12.54-.22.14-.09-.18-.26-.27-.35-.08-.09-.35-.13-.56-.13-.22,0-.44-.13-.58-.21-.11-.06-.26-.19-.31-.34-.07-.2.04-.27.19-.41.17-.16.41-.33.54-.33.15,0,.6-.47,1.16-.43.19.02.33.41.5.46.12.03.25.04.29.07.12.07.33.32.47.42.2.13.36.28.61.4.08.04.28.28.44.33.11.03.08.02.42.22,0-.03.2.03.32.06.1.03.36.37.43.46.11.16.32.28.36.36.09.16.11.31.27.47.09.09.5.16.6.23.19.13.62-.03.67-.18,0-.02-.39-.41-.59-.5-.17-.08-.51-.47-.63-.51-.27-.1-.65-.44-.96-.83-.1-.13-.4-.31-.54-.36-.1-.04-.41-.27-.53-.37-.2-.17-.51-.47-.8-.67-.15-.1-.45-.34-.66-.47-.27-.17-.68-.39-.92-.43-.27-.05-.51.03-.96.09-.07.01-.33.04-.43.02-.59-.09-1.12.02-1.49-.25-.15-.11-.22-.21-.18-.47.04-.19.29-.74.56-1.01.25-.24.47-.14.82-.74.07-.13.32-.22.45-.18.04.02.22.1.36.09.44-.01.88-.21,1.46-.31,0,0,.15.03.16.15,0,.09-.37.52-.61.79-.15.16-.1.32.04.42.22.16.51.28.64.31.05.01.24.09.32.01.09-.08.15-.33.21-.44.09-.17.33-.46.41-.54.09-.08.65-.53,1.07-.85.26-.2.39-.54.99-1.06.18-.16.54-.58.52-.66-.03-.16.35-.25.53-.12.08.05.21.22.28.29.06.07.18-.05.23.06.05.13.03.15-.07.3-.1.16-.19.21-.29.37-.11.17-.37.3-.39.43,0,.04-.13.24-.26.25-.06,0-.25.19-.3.26-.1.11-.26.18-.38.32-.13.15-.58.61-.68.71-.1.09-.15.36-.39.54-.09.07-.26.26-.36.33-.2.15-.49.12-.55.25-.07.14-.06.32-.02.39.08.14.38.22.48.3.09.08.22.25.35.32.13.08.4.25.62.47.09.08.31.15.39.21.11.06.29.09.38.09.08,0,.16-.03.21-.13.09-.19-.08-.26-.29-.37-.11-.05-.41-.08-.41-.19,0-.19.03-.26.2-.35.11-.06.25-.31.06-.4-.13-.07-.37.1-.46.2-.12.13-.24.05-.34.04-.1-.01-.25.03-.3-.1-.07-.18.01-.4.2-.58.09-.08.75-.66.85-.73.19-.15.32-.48.46-.61.36-.32.66-.6.78-.74.11-.12.18-.27.21-.3.07-.09.33-.18.53-.2.1,0,.27.02.4.13.11.09-.13.36-.31.53-.12.1-.17.22-.18.33,0,.13-.65.86-.77.95-.17.15-.1.19-.1.31,0,.17.39.3.41.48.01.12-.1.29-.05.37.14.24.63.06.77.04.37-.05.39-.61.32-.72-.04-.05-.32-.1-.49-.24-.2-.16-.29,0-.36-.15-.1-.19.29-.43.53-.49.22-.05.48-.13.59-.25.17-.19.22-.53.3-.61.06-.06.48-.07.57.02.09.09-.03.45.04.57.08.08.6-.01.88-.09.18-.05.55-.33.81-.21.1.04.15.19.24.21.09.02.23.14.27.19.17.21.11.56.07.77-.04.25-.45.35-.72.32-.34-.03-.59,0-.82.08-.09.03-.44.26-.43.4,0,.05.04.38-.12.55-.18.19-.5.14-1.47.44,0,.02-.78.12-.89.13-.19.03-.12.49.19.67.16.1-.44.26-.15.56.2.21.67.3.8,0,0-.14-.21-.34-.22-.48-.03-.24.26-.5.33-.46.14.09.32.06.41.07.09,0,.29.09.41-.02.07-.07-.07-.34.37-.41.29-.04.38.11.49.18.09.06.34-.04.47-.08.17-.06.31-.13.4-.21.27-.24.11-.65.36-.79.52-.29,1.62.58,1.79.62.05.01.17-.05.26-.04.15.03.33.14.38.32.03.12.1.34.12.63,0,.09-.04.26-.2.37-.14.1-.53.24-.55.43-.01.09-.6-.1-.94-.12-.6-.03-.95.32-1.41.52-.04.02-.39.16-.47.21-.07.04-.3.17-.51.28-.21.11-.46.24-.61.41-.1.11.06.23.15.32.16.16.57.22.7.23.12.1.27.2.32.31.05.11,0,.35.05.45.06.12.16.15.2.38.02.12.22.24.2.45-.04.32-.41.75-.61.91-.2.16-.67.47-.88.46-.2,0-.78-.29-1.27-.8-.1-.1-.28-.21-.44-.19-.07,0-.32-.28-.35-.45-.02-.13-.28-.36-.5-.52-.43-.32-1.22-.39-1.49-.31-.21.06-.46.04-.66,0-.16-.03-.61-.07-.87-.03-.14.02-.46.17-.58.38-.05.08.04.21.19.3.14.09.44.16.6.29.13.1.36.05.44.15.11.13.03.42.22.76.07.12.11.38.27.7.02.04.17.28-.02.39-.1.06-.44.35-.65.36-.18,0-.42.03-.54-.06-.22-.16-.33-.27-.6-.44-.13-.08-.34-.16-.46-.25-.19-.14-.92-.68-1.16-.48-.12.1-.35.44-.54.58-.18.12-.34.29-.55.4-.24.13-.48.2-.68.41-.17.17-.52.13-.58.13-.42.14-.82.56-1.2.34-.26-.15-.61-.25-.79-.41-.33-.29-.39-.23-.6-.37-.32-.21-.59-.5-.68-.74,0-.15.26-.33.4-.46Zm-21.79-21.04c.29.06.46.04.75,0,.07-.01.41-.01.55-.07.08-.03.25.04.34.04.69-.03,1.99-.51,2.78-.68.73-.16,1.15-.66,1.39-.82.13-.08.4-.29.43-.41.02-.08-.26-.14-.37-.2s-.17-.1-.27-.16c-.11-.06-.3-.06-.43-.11-.19-.05-.23-.08-.35-.2-.16-.17-.16-.39-.4-.57-.14-.11-.4-.62-.17-1.15.1-.25.25-.37.45-.39.18-.02.35-.12.47-.14.15-.02.3.08.46.07.12,0,.23-.08.44-.02.16.04.5.33.77.46.5.25.98.25,1.53.29.23-.46.5-.69.92-1.04.19-.15.35-.45.51-.7.33-.48.28-.56.34-.66.09-.18.21-.14.33-.11.39.11.37.26.48.33.17.11.35,0,.46.1.17.14.71.34.71.45,0,.28.14.56.3.8.14.21-.02.28-.1.49-.07.19-.01.32-.15.44-.14.12-.42.3-.73.56-.05.06-.33.35-.25.42.08.07.2.08.34.09.06,0,.31.02.46.05.15.03.35.11.52.1.26-.02.61-.12.72-.06,0,0,.78.24.78.44,0,.26.26.37.55.61.26.21.17.77-.05,1.16-.09.16-.13.22-.31.12-.09-.05-.3.04-.53.06-.53.04-.76-.1-1.08-.13-.25-.02-.4.02-.63-.08-.23-.1-.44-.2-.62-.26-.18-.05-.88-.21-1.08-.17-.14.02-.36.15-.54.26-.25.16-.31.6-.3.74.06.6.18,1.22.6,2.34.14.36.06,1.36.38,1.85.34.51.5,1.01.67,1.4.1.22.37.46.49.62.13.19.2.47.3.59.26.29.49.56.86,1.04.09.12.28.25.28.39,0,.12-.23.13-.29.22-.07.11-.13.32-.29.38-.3.11-.53.09-.82-.04-.11-.05-.27.05-.38.07-.11.03-.21-.07-.29-.1-.06-.02-.43-.27-.56-.37-.13-.1-.39-.17-.61-.34-.06-.05-.37-.23-.47-.41-.21-.37-.55-.38-.76-.59-.15-.14-.32-.4-.28-.6.1-.53.39-.54.03-1.69-.15-.48-.14-1.05-.22-1.5-.02-.09-.12-.68-.2-.86-.3-.66-.45-1.44-.56-1.64-.04-.07-.91.57-1.46.74-.62.19-1,.2-1.77.45-.66.21-1.27.02-1.56.04-.27.01-.9-.04-1.13-.03-.3,0-.69-.24-.91-.26-.12,0-.41-.11-.48-.17-.11-.09-.08-.27-.15-.42-.05-.12.14-.44.04-.58-.06-.08-.28-.26-.3-.35-.04-.12.09-.21.4-.14Zm-26.29-7.92c.09-.25.14-.51.11-.69.19-.23,1.08-.34,1.24-.34.12,0,.41.22.63.22.12,0,.99-.12,1.47-.17.16-.02.42.03.56.03.45-.02,1.13-.18,1.62-.25,1.05-.14,1.38-1.28,1.64-1.68.11-.17.22-.36.28-.63.06-.22.1-.48.01-.55-.19-.07-.48-.01-.59-.05,0,0-.49.04-.74-.13-.2-.14-.1-.41-.06-.72.04-.27-.09-.58-.24-.9-.06-.13.01-.56.05-.67.04-.12.07-.51.1-.63.08-.3.36-.26.66-.33.12-.03.63.36.92.48.11.04,1.6.18,2.44.19.18,0,.34-.01.44-.01.04,0,.22-.03.31-.04.75-.04,1.13-.1,1.94-.3.14-.03.32.01.51.06.23.06.33,0,.45.04.12.03.26.18.32.31.12.25.31.41.41.65.06.15.04.35.04.55,0,.13.15.33.13.4-.16.47-.51.37-1.06.59-.26.1-.62.21-.82.41-.1.09-.44.2-.61.22-.59.1-1.06-.02-1.23.47-.17.52.15.38.03.93-.02.12-.18.29-.27.35-.16.14-.19.22-.24.34-.05.13-.08.27-.2.36-.09.08-.13.25-.17.4-.14.5-.33.92-.21,1.08.56.07,1.34.29,1.94.43.23.06.36-.07.55-.07.15,0,.38.04.49.07.12.04.33.17.49.27.14.09.31.28.44.41.17.16.49.32.54.71.02.14-.02.34-.05.47-.01.05,0,.15.02.18.02.1.02.14-.01.26-.04.12-.18.27-.27.35-.12.11-.28.28-.42.26-.36-.08-.55-.09-.66-.12-.11-.03-.47-.25-.67-.3-.24-.06-.47-.05-.74-.12-.31-.08-.84-.27-1.17-.4-.19-.07-.88-.18-1.09-.27-.44-.17-.86-.17-1.13-.19-.21-.01-.76-.08-1.1-.11-.4-.04-.86-.27-1.21-.33-.41-.07-1.45-.17-2.25-.1-.96.09-2.76.39-2.88.35-.19-.07-.46-.72-.77-1.2-.02-.16.08-.44.12-.56Zm-24.04-6.47c-.01-.19.12-.54.05-.82-.09-.35.08-.84.28-.86.25-.03.28.27.55.24.12-.02.37-.05.47-.12.08-.05.48-.22.6-.29.36-.19.61-.4,1.01-.59.26-.12.63-.1.83-.21.58-.29,2.2-1.15,2.43-1.18.23-.03.43.16.62.14.33-.05,1.02-.16,1.15-.07.08.05.17.38.26.44.14.09.49.46.5.74.01.23-.23.63-.22.72.04.35,0,.53-.06.65-.17.3-.26.61-.4,1.08-.04.15-.39.51-.43.66-.27.94-.61,1.61-.81,2.54-.03.15-.22.47-.33.43-.1-.04-.37-.03-.47.08-.06.07-.35.07-.47.23-.08.11-.62.11-.69.32-.04.13-.03.45.08.57.18.18.48-.07.54-.18.06-.1.25-.29.41-.27.1.01.34.11.64.11.18,0,.28.16.29.25.02.42.25.63.27.75.02.12,0,.25-.05.33-.11.17-.26.27-.5.47-.12.1-.43.17-.6.32-.04.04-.17.21-.15.4.03.22.22.22.34.2.12-.02.59-.24.82-.28.23-.03.45-.01.64-.07.15-.04.54-.28.76-.27.25.01.5-.26.69-.11.04.29.61.35.68.82.09.66-.23,1.46-.8,1.59-.24.05-.1-.16-.94-.03-.75.12-1.39.24-1.5.27-.21.07-.53.04-.83.07-.3.03-.58.15-.71.17-.24.06-.47.22-.79.25-.38.04-.78.21-.95.33-.18.12-.74.17-1.01.24-.17.05-.46.33-1,.47-.19.05-.67-.04-.71-.25-.06-.29-.25-.45-.27-.86,0-.12-.02-.32-.02-.41,0-.11-.01-.36.16-.5.03-.02.1-.23.22-.23.11,0,.16.15.33.1.11-.03.63-.26.85-.43.29-.22.79-.51,1.07-.66.12-.23-.14-.32-.23-.29-.17.05-.35.09-.48,0-.24,0-.36-.05-.42-.14-.07-.1-.04-.3-.04-.38-.01-.16-.02-.25-.02-.47,0-.14,0-.35.21-.38.12-.02.15.07.27.05.12-.02.16-.07.27-.09.12-.02.19-.01.27-.05.07-.04.18-.16.22-.26,0-.02.04-.37-.02-.56-.04-.15-.18-.11-.34,0-.1.07-.25.11-.41.18-.08.02-.26.12-.38.14-.12.02-.18.01-.33,0-.14-.02-.14-.12-.19-.22-.05-.09-.17-.23-.18-.35-.02-.33-.3-.41-.36-.49-.13-.19-.23-.45-.24-.57-.05-.37.25-.71.18-.94-.06-.18-.32-.91-.35-1.42,0-.14-.22-.33-.27-.59-.04-.21.02-.34,0-.48Zm-4.63,6.34c-.12-.08-.17-.18-.26-.3,0,0-.47-.42-.5-.65-.05-.37.21-.67.56-.77.11-.03.33-.01.44-.04.27-.06.43-.35.54-.59.09-.18-.02-.69,0-.95.03-.33-.34-.33-.54-.38-.17-.04-.41-.14-.58-.13-.16.01-.36-.2-.41-.34-.1-.19-.18-.12-.32-.16-.17-.04-.24-.52-.25-.64,0-.07.12-.14.28-.24.13-.08.14-.24.18-.39.06-.21.27-.28.45-.36.13-.05.48-.07.64-.16.86-.5,1.74-1.66,2.62-1.73.45-.04.63-.05.79-.17.26-.2.49.39.61.6.07.11-.04.49-.03.69,0,.15-.2.37-.12.81.03.18-.12.35-.34.61-.15.18-.55.76-.59.87-.15.38.03.75.05.87.02.12-.03.47.13.58.19.13.3-.07.45-.08.1,0,.07.2.21.4.27.37.36.42.38.62.01.12.02.21-.06.28-.23.18-1.02.93-1.16,1.45-.03.11.07.48.13.51.11-.03.38-.05.5-.07s.42.15.5.23c.07.08.2.35.2.47.01.74-.51,1.24-1.06,1.71-.52.45-1.49.99-1.94,1.34-.37.29-.67.92-.89,1.05,0,0-.26.14-.4.07-.09-.05-.34-.04-.6-.08-.21-.03-.15-.32-.32-.47-.16-.15-.33-.27-.43-.45-.16-.3-.27-.61-.29-.9-.01-.22.4-.81.79-1,.1-.05.36-.37.46-.45.11-.09.24-.22.31-.43.03-.09.05-.29.05-.38-.01-.2.06-.35.04-.49,0-.02-.07-.25-.23-.36Zm-17.91,7.67c.12-.1.26,0,.45-.15.06-.05.41,0,.52-.04.09-.03.28-.09.42-.2.11-.09.37-.06.47-.11.09-.06.22-.18.3-.26.18-.16.96.11,1.24.23.12.05.23.07.4.18.07.05.19.32.21.42.06.26-.02.35-.06.54-.03.16.08.41.05.59-.01.09-.03.32-.08.46-.06.17-.18.29-.34.45-.09.09-.28.15-.38.24-.15.16-.19.38-.29.43-.13.08-.34.04-.51-.14-.09-.09-.15-.33-.29-.43-.18-.13-.62-.3-.68-.4-.16-.24-.48-.21-.57-.36-.22-.35-.41-.42-.5-.48-.12-.08-.19-.29-.19-.38.01-.16-.27-.38-.18-.6Zm-1.78,4.72c-.05-.1-.19-.33-.24-.43-.06-.1-.27-.37-.35-.59-.02-.04-.26-.49-.38-.84-.05-.08-.22-.2-.3-.18-.14.14-.35.05-.5.13-.1.06-.2.2-.3.26-.1.06-.33.2-.56.27-.04.01-.22-.02-.3-.06-.16-.09-.21-.21-.35-.33-.04-.02-.17-.16-.22-.16-.08-.1-.24-.29-.3-.38-.06-.1-.32-.31-.49-.53-.2-.24-.4-.4-.6-.7-.3-.45-.46-.67-.51-.76-.32-.56-.06-.88-.06-1.17.09-.17.24-.35.33-.47.18-.08.27-.05.53-.03.04.02.27.09.34.14.17-.09.47-.39.69-.75.1-.15.36-.31.51-.54.1-.15.26-.38.36-.43.1-.06.11-.12.29-.31.17-.18.26-.25.36-.48.06-.13.12-.25.17-.35.06-.1.1-.2.16-.28.05-.1.05-.15.23-.26.1-.06.32-.06.52-.09.1-.02.35-.27.49-.26.27.02.78-.05.97.04.2.09.44.4.54.46.1.06.25.26.29.43-.09.44-.23.74-.23.95,0,0,.03.37,0,.64-.07.71.03,1.42.05,2.16,0,.22-.06.49-.09.76-.01.09-.15.2-.28.22-.09.01-.21.29-.09.49.06.1.19.34.44.53.28.22,1.33,2.18,1.56,2.6.2.36.04.89-.05,1.03-.1.15-.04.57-.21.84-.12.19-.24.49-.33.54s-.2.03-.31-.02c-.08-.03-.33.05-.43.05-.15,0-.25-.06-.4-.05-.14.01-.39.1-.59.05-.18-.04-.29-.19-.52-.32-.33-.19-1.05-.19-1.12-.29-.11-.16.29-.42.33-.45.33-.21.69-.11.79-.17.33-.2.42-.43.15-.93Zm-1.65,2.19c-.03.18-.1.25-.23.49-.1.2-.33.21-.42.31-.08.08-.27.49-.44.59-.36.22-.79.26-1.04-.16-.06-.1-.13-.38-.19-.48s-.25-.19-.31-.28c-.06-.1,0-.39-.03-.53-.1-.39-.22-.88-.02-1.24.09-.15.17-.39.27-.45.35-.21.74.39.87.32.15-.09.36-.33.44-.45.03-.05.6-.37.6-.37.1-.06.21-.09.27-.03.13.13.16.37.16.37.06.1.18.33.17.42-.02.12-.08.26-.09.45,0,.09-.17.25-.15.37.04.28.18.42.14.66Zm-6.91-8.71c.08-.08.26.05.35,0,.1-.06.31-.43.45-.53.43-.33.8-.68,1.19-1.09.2-.2.46-.24.53-.43.09-.13.69-.78.87-.96.11-.11.31-.31.28-.51-.01-.07-.17-.22-.23-.26-.15-.11-.23.03-.36.08s-.36.01-.43-.05c-.08-.08-.09-.24-.11-.34-.02-.13-.03-.19-.06-.36-.01-.11-.05-.25-.1-.44-.06-.24-.78-.56-.92-.68-.09-.07-.11-.23-.08-.38.06-.27.31-.3.5-.43.15-.1.2-.27.24-.32.05-.06.23-.14.29-.22.11-.14.07-.2.24-.31.09-.06.27-.13.4-.18.17-.07.37-.22.47-.28.12-.07.18.02.36.05.07.01.38-.18.51-.13.13.05.33.35.45.42.18.11.46.05.78.54.32.48.19.57.04,1.01-.02.16.1.33.23.2.23-.21,1.07-1.01,1.26-1.22.27-.3.51-.53.72-.7.09-.07.29-.02.46-.07.13-.03.34-.18.45-.1.22.16.5.21.68.13.08-.04.28,0,.33.1.06.1.15.25.25.47.16.33-.25.88-.4,1.17-.05.1-.25-.05-.51.13-.09.07-.61.43-.71.49l-.54.42c-.11.11-.33.36-.44.48-.16.17-.28.3-.42.51-.08.09-.33.12-.53.29-.08.08-.3.5-.56.76-.63.65-1.46,1.32-1.48,1.48-.03.21-.31.24-.41.42-.05.1-.31.26-.4.41-.15.25-.29.24-.38.38-.07.11-.18.18-.34.28-.1.06-.2.22-.34.35-.08.07-.25.2-.35.22-.08.02-.28.18-.28.18-.02.16-.21.28-.38.39-.09.06-.28.31-.3.36.02.11-.07.26-.22.39-.13.12-.11-.05-.39-.03-.13.01-.33.25-.51.27-.22.02-.35-.23-.45-.45-.02-.05-.15-.23-.28-.42-.08-.12-.16-.27-.11-.4.09-.27.45-.89.69-1.1Zm-18.86,13.09c.08-.1.37-.22.5-.36.12-.12.19-.36.27-.45.12-.14.3-.19.38-.27.08-.08.18-.37.32-.5.2-.18.32-.11.47-.14.1-.02.22-.14.3-.2.08-.07.27-.04.41.01.36.12.68.33.76.42.45.45.26.87.43,1.25,0,0,.24.42.35.49.27.18.56,0,.48-.26.13-.22.09-.42.14-.58.06-.19.44-.18.78-.41.19-.13.66.18.96.25.15.03.43.28.52.35.11.09.12.29.04.43-.11.19-.17.29-.29.53-.12.22-.06.44-.08.61-.04.27-.17.47-.19.77-.03.36-.19.9-.37,1.18-.01.24.45.87.64,1.12.13.18.36.33.46.38.31.16.49.45.95.46.33.01.68-.21.86-.37.09-.1.42-.37.47-.38.15-.05.32-.24.36-.26.12-.04.34-.11.41-.2.09-.11.34-.35.51-.44.27-.14.69.06.88.31.19.25.29.59.47.89.13.23.29.41.27.63-.02.17-.33.39-.41.6-.11.27-.24.51-.36.63-.12.12-.39.16-.49.21-.26.12-.48.4-.57.51-.13.16-.52.54-.52.54-.08.08-.37.2-.57.34-.22.16-.49.54-.67.65-.16.09-.38.14-.51.16s-.64-.09-.81-.16c-.15-.06-.59-.48-.63-.51-.13-.09-.77-.43-.85-.52l-.47-.39c-.08-.08-.39-.31-.48-.34-.22-.07-.64-.47-.72-.55-.35-.32-.31-.47-.9-1.17-.06-.07-.14-.39-.2-.46-.31-.33-.2-.36-.43-.64-.19-.23-.39-.57-.45-.64-.31-.35-.74-.78-.82-.86-.18-.19-.27-.37-.41-.62-.14-.25-.6-.9-.69-.98,0,0-.44-.36-.56-.56-.15-.25-.07-.37.08-.55Zm-3.59,5.22c-.01-.1,0-.2.1-.28.08-.07.34-.06.46-.14.16-.11.34-.31.52-.45.08-.06.38-.43.46-.51.04-.04.25-.21.39-.25.08-.02.28-.17.41-.16.29.01.58,0,.77.14.17.12.17.22.3.32.09.07.39.35.47.47.06.1.15.42.3.74.1.14.4.5.48.58.25.24.43.43.94.98.16.17.3.39.52.65.08.09.32.36.48.52.24.23.38.16.46.21.07.05.13.08.23.16.14.1.3.13.37.22.11.14.23.46.5.82.14.19.16.39.15.58-.02.33-.07.78-.23,1.13-.17.37.06.92.01,1.17-.05.28-.21.62-.32.94-.14.41-.27.89-.29,1.32-.01.23-.2.48-.26.72-.02.08-.04.99-.17,1.35-.08.23-.64.08-.95.08-.23,0-.25.05-.56.1-.16.02-.36-.22-.5-.3-.16-.09-.42-.17-.48-.22-.14-.14-.15-.37-.09-.46.06-.12.22-.21.26-.34.08-.26.13-.46.17-.75.04-.3.22-.55.29-.7.19-.42.23-1.01.34-1.36.06-.2.17-.59-.02-.8,0,0-.85-.82-.98-.86-.14-.05-.34.09-.34.09-.07.18-.26.39-.34.48-.08.08-.14.37-.22.53-.05.1-.13.29-.24.34-.12.05-.19.09-.34.04-.26-.08-.37-.25-.57-.37-.13-.08-.24-.06-.42-.23-.22-.21-.15-.26-.66-.68-.29-.24-.14-.6-.02-.78.15-.23.17-.53.35-.73.09-.11.31-.33.35-.44.09-.22.26-.56.27-.8-.06-.26-.02-.51-.25-.75-.46-.47-.56-.8-.95-1.2-.48-.48-.79-.34-.98-.39-.11-.03-.17-.1-.2-.19.02-.22.08-.28.05-.54Zm-20.32,53.61l.02-.91,9.87.17-.02.91-.06,3.49c-.02.88-.25,1.56-.7,2.05s-1.07.72-1.85.71c-.82-.02-1.44-.3-1.85-.87-.07-.09-.13-.19-.19-.31-.09.21-.2.4-.33.56-.44.57-1.08.85-1.92.84-1.01-.02-1.77-.32-2.29-.9-.52-.58-.76-1.43-.74-2.53l.06-3.21Zm.18,10.68l9.8-1.2.81,6.64-.87.11-.87.11-.58-4.75-2.08.26.54,4.41-.84.1-.85.1-.54-4.41-2.55.31.61,4.96-.87.11-.87.11-.84-6.84Zm1.45,10.95l-.18-.93,9.69-1.88.18.93.18.93-9.69,1.88-.18-.93Zm2.62,8.65c-.62-.34-1.06-.98-1.31-1.91-.27-.99-.19-1.79.23-2.4.42-.61,1.21-1.05,2.35-1.32l.57-.15.47,1.74-.57.15c-.58.14-.99.33-1.22.58-.23.25-.3.56-.2.94.1.36.27.59.51.7.25.1.6.09,1.06-.03l6.86-1.84.24.91.25.92-6.86,1.84c-.97.26-1.76.22-2.39-.13Zm1.42,5.36l-.34-.89,9.22-3.54.34.88.34.89-9.22,3.54-.34-.88Zm4.39,9.99l-.4-.86,4.87-6.4-6.45,3.01-.37-.8-.38-.81,8.95-4.17.42.9.42.9-4.74,6.23,6.28-2.93.37.8.38.81-8.95,4.17-.4-.86Zm11.81,3.63c-.45-.69-1.06-1.07-1.83-1.12-.77-.05-1.62.22-2.55.82-.94.61-1.53,1.26-1.78,1.95-.25.69-.14,1.4.33,2.12.4.61.97.93,1.7.94.41,0,.84-.08,1.29-.24h.02s-1.17-1.8-1.17-1.8l1.43-.93,2.07,3.19-4.47,2.9-.69-1.06.97-.85h-.2c-1.12-.04-1.99-.51-2.58-1.42,0,0,0,0,0,0h0s0,0,0,0c-.72-1.11-.9-2.24-.55-3.39.35-1.16,1.2-2.17,2.52-3.03,1.35-.88,2.65-1.24,3.88-1.07,1.23.16,2.23.82,2.98,1.97.6.93.85,1.85.73,2.78-.11.93-.57,1.72-1.36,2.37l-1.03-1.59c.33-.28.53-.67.58-1.18.06-.51-.04-.96-.31-1.36Zm1.25,15.37l-.64-.71,7.34-6.61.63.7.64.71-7.34,6.61-.63-.7Zm7.88,7.84l-.69-.64,2.12-7.76-4.86,5.21-.65-.6-.65-.61,6.74-7.22.73.68.73.68-2.06,7.56,4.73-5.07.65.6.65.61-6.74,7.22-.69-.65Zm13.53,1.58l-1.5-1.09c.25-.4.31-.81.2-1.24-.12-.43-.4-.8-.85-1.13-.39-.28-.76-.41-1.12-.39-.35.03-.65.21-.9.54-.17.24-.19.51-.06.8.13.3.5.8,1.11,1.51.88,1.04,1.38,1.86,1.49,2.46.11.6-.1,1.27-.64,2.02-.54.75-1.25,1.15-2.11,1.19-.86.05-1.76-.27-2.68-.94-.93-.68-1.49-1.44-1.67-2.29-.18-.85.02-1.72.61-2.6l1.48,1.08c-.29.44-.39.86-.29,1.29.1.42.39.81.87,1.15.49.36.94.55,1.33.57.4.03.71-.11.93-.41.22-.3.28-.59.19-.88-.09-.28-.4-.73-.92-1.34-.96-1.13-1.52-2-1.67-2.62-.15-.61.02-1.26.52-1.95.56-.78,1.27-1.2,2.12-1.28.85-.08,1.71.2,2.59.84.82.6,1.32,1.32,1.5,2.17.17.85,0,1.69-.53,2.53Zm2.7,9.52l-.83-.46-.83-.46,3.94-7.1-2.4-1.33.42-.76.43-.77,6.46,3.58-.42.76-.43.77-2.4-1.33-3.94,7.1Zm6.73,3.43l-.86-.4-.86-.4,4.17-8.95.86.4.86.4-4.17,8.95Zm12.74-4.76l-.29.83-2.59-.89-2.65,7.68-.89-.31-.9-.31,2.65-7.68-2.59-.89.28-.83.29-.83,6.98,2.4-.28.83Zm7.95,7.63c-.34,1.37-.86,2.29-1.57,2.76-.71.47-1.69.54-2.95.23-1.21-.3-2.02-.84-2.45-1.62-.42-.78-.47-1.83-.15-3.14l1.49-5.97.92.23.92.23-1.51,6.04c-.17.69-.16,1.24.04,1.65.2.42.59.69,1.16.84.62.15,1.09.11,1.44-.14.34-.25.61-.75.79-1.49l1.5-6.04.92.23.92.23-1.49,5.97Zm2.33-12.91c-.3.25-2.73-.06-3.22-.06s1.67-.17,1.82-.21c.15-.04-1.37-.02-1.94-.06-.58-.04.61-.21.61-.21l-1.94-.02-.03-.78s-.04-.01-.07-.02l-2.27.02s-.02-.28-.09-.69c-10.92-3.25-20.79-8.94-28.97-16.44-1.17-1.07-2.3-2.18-3.4-3.32-.06-.06-.11-.13-.17-.19-2.86-3-5.47-6.23-7.8-9.68-.1-.15-.19-.31-.3-.46-.98-1.47-1.9-2.98-2.78-4.52-6.11-10.78-9.61-23.25-9.61-36.53,0-3.84.29-7.62.86-11.31,3.19-20.89,15.09-38.91,31.88-50.25,11.85-8,26.13-12.68,41.51-12.68,20.5,0,39.06,8.31,52.5,21.74,13.43,13.43,21.74,31.99,21.74,52.49,0,5.41-.59,10.69-1.69,15.77-.46,2.13-1,4.24-1.65,6.3-7.44,23.91-26.65,42.62-50.86,49.4-.01.06-.02.13-.03.16-.03.43.23.31-.17.54-.24.14-1.56.41-2.16.39-.29-.01,1.05-.43,1.08-.5.02-.05-.75.15-1.38.3l.39.02s-.57.06-.92.1c-.11.02-.2.04-.24.04-.07,0,.05-.02.24-.04.14-.03.32-.07.53-.12l-.7-.04c-5.37,1.23-10.94,1.91-16.68,1.91-4.77,0-9.43-.47-13.96-1.33-.02.11-.06.21-.13.26Zm8.55,9.02l-.11.87-2.72-.33-.99,8.06-.94-.11-.95-.12.99-8.06-2.72-.33.11-.87.11-.87,7.33.9-.11.87Zm2.61,9.01l-.17-9.87,6.69-.12.02.87v.88s-4.77.08-4.77.08l.04,2.1,4.44-.08v.85s.03.85.03.85l-4.44.08.04,2.57,5-.09.02.87.02.88-6.9.12Zm22.72-3.36c-.59,1.06-1.55,1.72-2.87,1.97-1.31.25-2.44,0-3.39-.76-.95-.76-1.57-1.92-1.88-3.47-.31-1.58-.17-2.91.43-3.99.59-1.08,1.54-1.75,2.85-2,1.32-.26,2.45,0,3.4.78.95.78,1.58,1.96,1.89,3.54.3,1.55.16,2.86-.44,3.92Zm7-.69l-.9.29-.91.29-3.05-9.39,6.15-2,.27.83.27.84-4.34,1.41.69,2.13,3.79-1.23.26.8.26.81-3.78,1.23,1.29,3.97Zm14.79-6.21l-.84.45-3.81-7.17-2.42,1.29-.41-.77-.41-.78,6.52-3.47.41.77.41.78-2.42,1.29,3.81,7.17-.84.44Zm6.02-3.32l-5.38-8.28,5.61-3.64.48.73.48.74-4.02,2.61,1.14,1.76,3.73-2.42.46.71.46.72-3.73,2.42,1.4,2.16,4.19-2.72.48.73.48.74-5.78,3.76Zm13.29-10.93c-.11.97-.58,1.8-1.42,2.51-.98.82-2.05,1.12-3.23.89-1.17-.23-2.27-.95-3.28-2.16-1.04-1.23-1.57-2.46-1.6-3.67-.03-1.21.44-2.22,1.42-3.04.83-.69,1.72-1.03,2.67-.99.95.03,1.82.42,2.61,1.17l-1.45,1.22c-.39-.37-.82-.56-1.3-.57-.48,0-.93.17-1.36.52-.54.45-.77,1.04-.68,1.77.09.73.48,1.5,1.17,2.33.68.81,1.36,1.32,2.05,1.52.69.2,1.31.08,1.85-.38.43-.36.67-.79.72-1.29.05-.5-.09-1-.43-1.49l1.45-1.22c.65.95.91,1.91.8,2.88Zm8.52-7.76l-.64.71-3.32-2.99-2.38,2.64,3.32,2.99-.63.7-.64.71-7.34-6.61.63-.7.64-.71,2.75,2.48,2.38-2.64-2.75-2.48.63-.7.64-.71,7.34,6.61-.63.7Zm6.92-9.15l-.54.77-7.98-1.02,5.83,4.08-.51.72-.51.73-8.09-5.66.57-.82.57-.82,7.77.99-5.68-3.98.51-.72.51-.73,8.09,5.66-.54.78Zm4.76-7.81c-.63,1.18-1.53,1.9-2.72,2.16-1.19.26-2.48.02-3.88-.72-1.42-.76-2.37-1.7-2.84-2.84-.47-1.14-.39-2.3.24-3.48.63-1.19,1.55-1.9,2.75-2.15s2.52,0,3.94.76c1.4.74,2.32,1.68,2.77,2.8.45,1.13.36,2.28-.27,3.47Zm3.18-7.59l-9.22-3.54.34-.88.34-.89,7.58,2.91,1.62-4.22.82.31.82.32-2.3,5.99Zm4.59-13.21c-.32,1.29-1.03,2.21-2.12,2.75-1.09.54-2.4.62-3.94.24-1.56-.39-2.71-1.08-3.44-2.08-.73-.99-.93-2.14-.61-3.43.32-1.3,1.04-2.22,2.15-2.75,1.11-.53,2.45-.6,4.01-.21,1.53.38,2.66,1.07,3.36,2.05.71.99.9,2.13.58,3.43Zm.86-15.16c.87.72,1.26,1.62,1.16,2.71h0c-.12,1.31-.67,2.32-1.66,3.01-.99.69-2.27.97-3.85.83-1.61-.14-2.85-.65-3.72-1.54-.87-.89-1.25-2.02-1.13-3.39.1-1.1.47-1.98,1.14-2.64.66-.66,1.5-1,2.53-1.04l-.17,1.89c-.43.01-.83.2-1.19.57-.36.37-.56.79-.6,1.27-.07.82.18,1.49.76,2.01.58.52,1.41.83,2.51.92,1.12.1,1.98-.05,2.6-.45.62-.39.97-1.02,1.04-1.87.06-.73-.19-1.33-.76-1.79-.32-.26-.71-.46-1.17-.6h-.02s-.19,2.13-.19,2.13l-1.69-.15.33-3.79,5.31.46-.11,1.26-1.29.07.15.12Z"/>
  <path class="b" d="m47.89,152.85c1.1,1.14,2.23,2.25,3.4,3.32-1.17-1.07-2.3-2.18-3.4-3.32Z"/>
  <path class="b" d="m90.77,13.03c.27.06.7-.06.7-.06.18-.17.4-.56.37-.73-.02-.12-.05-.45-.12-.5-.46.22-1.24.31-1.23.7,0,.2.06.54.27.59Z"/>
  <path class="b" d="m88.41,15.73c0,.12.03.23.1.32.2.02.48.06.58-.02.15-.11.3-.39.29-.72,0-.12-.11-.2-.21-.17-.24.06-.48.13-.65.2-.05.05-.12.23-.11.38Z"/>
  <path class="b" d="m17.49,102.31c.34,0,.59-.11.76-.36.17-.24.26-.61.27-1.11l.04-2.09-2.17-.04-.04,2.17c0,.47.08.83.27,1.07.19.24.48.36.87.37Z"/>
  <path class="b" d="m91.04,14.3c-.15.07-.24.23-.49.24-.1.15,0,.41.01.52.02.12.29.27.36.25.18-.05.45-.25.52-.51,0,0,0-.27-.05-.43-.04-.15-.26-.12-.35-.08Z"/>
  <path class="b" d="m88.59,14.14c.24-.25.57-.38.56-.7-.01-.45-.14-.56-.48-.42-.09.15-.55.08-.49.47.03.17-.01.44.14.54,0,0,.15.24.27.11Z"/>
  <path class="b" d="m60.4,25.55c-.15.05-.33.27-.33.27-.09.17-.26.21-.3.35-.03.12-.15.3-.17.35-.2.28-.41.5-.54.75-.07.13-.13.31,0,.51.09.13.29.25.5.12.11-.07.38-.36.45-.51.12-.23.13-.42.28-.72.1-.2.21-.57.2-.64,0-.22-.01-.51-.1-.48Z"/>
  <path class="b" d="m174.03,117.25c1.1-5.08,1.69-10.36,1.69-15.77,0-20.5-8.31-39.06-21.74-52.49,13.43,13.43,21.74,31.99,21.74,52.49,0,5.41-.59,10.69-1.69,15.77Z"/>
  <path class="b" d="m59.97,39.92c-16.79,11.34-28.68,29.36-31.88,50.25,3.19-20.89,15.09-38.91,31.88-50.25Z"/>
  <path class="b" d="m101.48,3.6C47.42,3.6,3.6,47.42,3.6,101.48s43.82,97.88,97.88,97.88,97.88-43.82,97.88-97.88S155.54,3.6,101.48,3.6Zm0,194.43c-53.24,0-96.55-43.31-96.55-96.55S48.24,4.93,101.48,4.93s96.55,43.31,96.55,96.55-43.31,96.55-96.55,96.55Z"/>
  <path class="b" d="m124.81,166.49c-.21-.21-2.24-1.43-2.88-1.61-.64-.18-1.69-.71-1.97-.81-.64-.21-1.31.03-1.52-.18-.37-.37-.73-.51-1.34-.54-.61-.03-.47-.32-.72-.9-.24-.58-.9-.63-1.43-.9-.4-.2-1.37-1.24-1.86-1.39-.49-.15-1.02.13-1.33-.11-.31-.24-.61-1.01-1.19-1.16-.58-.15-2-.25-2.33-.65-.34-.4-1.65-.89-2.42-1.47-.77-.58-3.1-.54-3.1-.54v-6.15s.25-.06.21-.24c-.03-.18-.49-.46-.8-.77-.31-.31-.74-.92-.74-.92,0,0-.34.55-.7.92-.37.37-.92.73-.8.86.12.12.31.27.31.27v6.09s-2.68-.18-3.27.16c-.65.37-1.39.79-2.06,1.26-.67.46-1.7.54-2.33.63-.47.07-1.15,1.01-1.79,1.25s-1.54.54-1.88.72c-.77.4-.83,1.46-1.25,1.61-.43.15-1.16.05-1.43.81-.31.86-1.47.6-1.61.81-.21.31-1.25,1.49-1.61,1.52-.37.03-2.44.96-3,1.61-4.97.43-6.85.8-6.85.8l57.35-.06s-3.4-.91-5.63-.92Zm-32.05-.36h-.94v-4.18h-1.65v-.59c1.15-.07,1.62-.16,1.9-1.12h.69v5.89Zm5.1.16c-1.66,0-2.1-1.01-2.1-1.57h.88c.05.59.47.96,1.2.96.96,0,1.48-.68,1.7-2.2l-.02-.02c-.26.45-.97.7-1.62.7-1.31,0-2.22-.73-2.22-1.9,0-1.07.78-2.02,2.27-2.02,2.25,0,2.47,1.77,2.47,2.73,0,.63-.13,3.32-2.56,3.32Zm8.76-1.59h-1.03v1.43h-.88v-1.43h-3.08v-.72l3.23-3.73h.73v3.82h1.03v.64Zm3.65,1.59c-2.03,0-2.42-1.8-2.42-3.02s.39-3.02,2.42-3.02,2.42,1.8,2.42,3.02-.39,3.02-2.42,3.02Z"/>
  <path class="b" d="m110.26,160.91c-1.01,0-1.48.89-1.48,2.36s.46,2.36,1.48,2.36,1.48-.89,1.48-2.36-.46-2.36-1.48-2.36Z"/>
  <polygon class="b" points="102.43 164.07 104.7 164.07 104.7 161.4 104.68 161.4 102.43 164.07"/>
  <path class="b" d="m97.96,160.91c-.83,0-1.37.54-1.37,1.32,0,1.13.84,1.27,1.44,1.27.46,0,1.36-.18,1.36-1.34,0-.67-.41-1.26-1.43-1.26Z"/>
  <path class="b" d="m80.26,172.62s0,0,0,0c.78.23,1.57.46,2.36.67h0c-.79-.21-1.58-.44-2.36-.67Z"/>
  <path class="b" d="m82.7,173.31h0c1.59.41,3.2.77,4.83,1.07h0c-1.63-.31-3.24-.66-4.83-1.07Z"/>
  <path class="b" d="m87.46,173.37h-3.37s0-.47-.39-.5c-.4-.04-1.28-.04-1.28-.04,0,0-.67-3.45-2.79-4.34-2.12-.89-4.37-.74-4.37-.74,0,0,.03.41.49.45.46.04,2.04.56,2.79,1.01,1.11.66,1.56,2.43,1.73,3.42.78.23,1.57.46,2.36.67h.07s0,.02,0,.02c1.59.41,3.2.76,4.83,1.07.08-.4-.07-1.02-.07-1.02Z"/>
  <path class="b" d="m82.73,174.09l1.94.02s-1.18.17-.61.21c.58.04,2.09.02,1.94.06-.15.04-2.31.21-1.82.21s2.91.31,3.22.06c.07-.06.1-.15.13-.26-1.63-.31-3.24-.66-4.83-1.07l.03.78Z"/>
  <path class="b" d="m80.36,173.31l2.27-.02c-.79-.21-1.58-.44-2.36-.67.07.41.09.69.09.69Z"/>
  <path class="b" d="m83.48,168.81s-.12,2.95,0,3.3c.12.35.61.25.61.02s.06-2.97-.06-3.24c-.12-.27-.55-.08-.55-.08Z"/>
  <path class="b" d="m84.79,168.35c-.12.39,0,3.76.12,3.96.12.19.7.23.7,0s0-3.84-.12-4.03c-.12-.19-.58-.31-.7.08Z"/>
  <path class="b" d="m86.43,168.56c-.36.04-.3.6-.3,1.18s-.03,2.35.3,2.35.27-2.07.27-2.35.09-1.22-.27-1.18Z"/>
  <path class="b" d="m100.73,168.77c-.42,0-.42.31-.42,1.05s.18,2.44.49,2.44.3-2.09.3-2.52-.11-.97-.36-.97Z"/>
  <path class="b" d="m102.25,168.06c-.61,0-.49.76-.49,1.45s-.12,2.95.43,2.95.42-2.13.42-2.91.15-1.49-.36-1.49Z"/>
  <path class="b" d="m103.52,168.89c-.25,0-.25.23-.25.97s-.12,2.4.24,2.4.33-2.05.39-2.52c.06-.47-.03-.85-.39-.85Z"/>
  <path class="b" d="m117.62,168.77c-.42,0-.42.31-.42,1.05s.17,2.4.48,2.4.31-2.05.31-2.47-.11-.97-.36-.97Z"/>
  <path class="b" d="m119.13,168.06c-.61,0-.49.76-.49,1.45s-.12,2.95.43,2.95.43-2.13.43-2.91.15-1.49-.36-1.49Z"/>
  <path class="b" d="m120.41,168.89c-.24,0-.24.23-.24.97s-.12,2.4.24,2.4.33-2.05.4-2.52c.06-.47-.03-.85-.39-.85Z"/>
  <path class="b" d="m118.16,173.81h0c1.13-.26,2.25-.54,3.36-.86h0c-1.11.31-2.23.6-3.36.86Z"/>
  <path class="b" d="m123.2,169.53c1.19-.85,4.16-.6,4.16-.6v-1.47s-2.74-.21-4.19.95c-1.46,1.16-2.31,4.6-2.31,4.6l-4.01.1s-.12-2.79-1.15-3.88c-1.03-1.09-3.37-1.75-5.95-1.57-2.6.18-3.59,1.03-4.28,1.73-.73.74-1.5,3.63-1.5,3.63l-4.01.1s-.12-2.79-1.15-3.88c-1.03-1.09-3.37-1.75-5.95-1.57-2.6.18-3.59,1.03-4.28,1.73-.73.74-1.12,3.22-1.12,3.22,0,0,.18.31.46.14.27-.17.73-3.28,2.55-3.9,1.66-.57,3.48-.41,5.1.21,2.16.83,1.97,4.54,1.97,4.54h3.52l-.34.27,1.71.04s-.55.15-.39.26c.13.09,1.01-.04,1.01.04-.02.16-.55.16-.28.3.1.05.5.04.64.11.26.13-1.03.19-.77.28.13.04,1.48.13,1.82,0-.17-.3-.04-.99.09-1.54.02-.08.21-.58.25-.61.27-.17.73-3.28,2.55-3.9,1.66-.57,3.48-.41,5.1.21,2.16.83,1.97,4.54,1.97,4.54h3.52l-.58.18.79.05c1.13-.26,2.25-.54,3.36-.86.11-.67.7-2.73,1.67-3.42Z"/>
  <path class="b" d="m119.26,173.87l-.39-.02c-.2.05-.38.09-.53.12.35-.04.92-.1.92-.1Z"/>
  <path class="b" d="m118.86,173.85c.63-.15,1.4-.35,1.38-.3-.03.07-1.36.49-1.08.5.61.02,1.92-.25,2.16-.39.41-.23.14-.12.17-.54,0-.04.01-.1.03-.16-1.11.31-2.23.6-3.36.86l.7.04Z"/>
  <path class="b" d="m118.09,174.01s.13-.02.24-.04c-.19.02-.31.04-.24.04Z"/>
  <path class="b" d="m91.49,144.01l9.99,2.16,9.99-2.16-2.88-11.48c25.89-2.22,44.69-8.18,44.69-8.18,3.79-2.61,7.1-7.92,7.1-7.92,0,0-6.46,1.59-11.29,1.79-7.31.29-17.64-.33-27.1-.21-1.52.28-2.88.5-3.94.64-2.53.32-6.77.78-8.63.97l2.65,10.72-10.6,1.79-10.6-1.79,2.65-10.72c-1.86-.2-6.09-.65-8.63-.97-1.06-.14-2.42-.36-3.94-.64-9.46-.11-19.79.51-27.1.21-4.83-.19-11.29-1.79-11.29-1.79,0,0,3.31,5.31,7.1,7.92,0,0,18.8,5.97,44.69,8.18l-2.88,11.48Z"/>
  <path class="b" d="m55.15,108.34c3.03,1.81,6.77,3.27,8.73,3.98,3.1,1.12,15.89,4.03,21.23,4.71,3.28.42,9.45,1.06,9.51,1.07l.92.09-2.68,10.83,8.62,1.46,8.62-1.46-2.68-10.83.92-.09c.06,0,6.23-.65,9.52-1.07,5.34-.68,18.12-3.59,21.23-4.71,1.96-.71,5.7-2.17,8.73-3.98,2.65-1.88,4.77-4.26,6-5.91-1.64.29-4.07.65-6.26.68-1.48.02-3.32,0-5.42-.04-1.87-.03-3.99-.06-6.23-.06-2.59,0-5.86.04-9.39.25-3.04.92-6.38,1.7-10.14,2.35-2.3.4-5.49.48-7.18.49l2.43,10.29-10.07,1.2h-.07s-.07,0-.07,0h-.11s-9.96-1.2-9.96-1.2l2.43-10.29c-1.68-.01-4.87-.09-7.18-.49-3.77-.66-7.1-1.43-10.14-2.35-3.53-.21-6.8-.25-9.39-.25-2.24,0-4.36.03-6.22.06-2.1.03-3.94.06-5.42.04-2.2-.03-4.63-.39-6.26-.68,1.23,1.65,3.35,4.02,6,5.91Z"/>
  <path class="b" d="m60.97,93.33c2.53,2.18,5.7,4.23,8.73,5.65,4.77,2.23,10.22,3.84,17.17,5.05,2.44.43,5.99.47,7.41.47.31,0,.49,0,.49,0h1.04s-2.48,10.52-2.48,10.52l8.05.96.1-.02.1.02,8.05-.96-2.48-10.53h1.03s.18.02.5.02c1.42,0,4.97-.05,7.41-.47,6.95-1.21,12.4-2.82,17.17-5.05,3.03-1.42,6.2-3.47,8.71-5.63,2.73-2.21,4.73-4.72,5.91-6.49-2.19.33-5.39.66-6.18.7-.7.03-1.5.07-2.4.11-2.92.13-6.69.3-11.28.59-.41.23-.83.46-1.26.67-3.9,1.99-8.3,3.39-12.75,4.07-.65.1-1.42.15-2.28.15-1.05,0-2.06-.07-2.79-.15l2.19,9.15-9.65.61-9.66-.61,2.19-9.15c-.74.07-1.74.15-2.8.15-.85,0-1.62-.05-2.28-.15-4.44-.67-8.85-2.08-12.75-4.07-.43-.22-.85-.44-1.26-.67-4.59-.28-8.36-.45-11.28-.59-.9-.04-1.7-.08-2.4-.11-.8-.04-4-.37-6.18-.7,1.17,1.77,3.18,4.28,5.89,6.48Z"/>
  <path class="b" d="m76.93,87.49c3.74,1.91,7.98,3.26,12.26,3.91.58.09,1.26.13,2.03.13,1.9,0,3.71-.27,3.73-.27l1.18-.18-2.3,9.58,7.64.48,7.64-.48-2.3-9.58,1.18.18s1.83.27,3.73.27c.78,0,1.46-.04,2.04-.13,4.27-.65,8.51-2,12.26-3.91,4.32-2.21,7.84-5.01,11.42-9.09,2.03-2.32,3.88-5.26,4.85-7.14-.9.22-2.03.45-3.13.65-.29.05-.67.12-1.15.21-2.5.47-7.72,1.46-14.6,2.23.5-.26,1-.57,1.47-.95,2.27-1.83,2.97-4.67,3.17-5.89,1.38-.39,4.97-1.66,7.6-4.95,2.67-3.34,3.06-6.87,3.06-8.67v-1.12s-1.07.36-1.07.36c-3.23,1.09-15,4.65-30.9,4.66-.31-1.57-1.08-5.58-1.42-7.31-.26.09-.51.18-.77.26-.09-.45-.15-.76-.17-.88-.02-.1-.04-.23-.07-.36.25-.08.51-.17.77-.26-.26-1.24-.99-3.81-3.53-3.81h-.13c-2.79,0-3.4,3.12-3.59,4.14l-.03.13c-.11.57-1.2,6.15-1.57,8.08-15.91-.01-27.67-3.57-30.9-4.66l-1.06-.36v1.12c0,1.8.38,5.32,3.06,8.67,2.63,3.29,6.21,4.56,7.6,4.95.2,1.22.9,4.05,3.17,5.89.47.38.96.69,1.46.95-6.88-.77-12.1-1.76-14.59-2.23-.48-.09-.87-.16-1.15-.21-1.1-.2-2.23-.43-3.13-.65.97,1.87,2.82,4.82,4.85,7.14,3.57,4.08,7.09,6.89,11.42,9.09Zm2.16-15.35c-2.35-1.89-2.65-5.31-2.65-5.34l-.05-.61-.6-.12s-4.33-.91-7.22-4.52c-1.89-2.36-2.49-4.82-2.65-6.53,4.41,1.38,15.68,4.39,30.39,4.39h1.24s.13-.66.13-.66c0,0,1.56-8.04,1.7-8.73l.03-.14c.27-1.4.73-2.83,2.01-2.83h.13c1.28,0,1.74,1.43,2.01,2.83l.03.14c.14.68,1.69,8.73,1.69,8.73l.13.65h1.24c14.72,0,25.99-3,30.4-4.38-.16,1.7-.76,4.16-2.65,6.53-2.88,3.6-7.18,4.51-7.22,4.52l-.6.12-.05.61s-.3,3.45-2.65,5.34c-1.91,1.54-4.32,1.77-5.59,1.77-.46,0-.75-.03-.75-.03l-.63-.08-.22.59s-.94,2.4-4.18,3.45c-.67.22-1.39.33-2.14.33-1.57,0-2.75-.48-2.76-.49l-1.48-.62,2.17,8.85h-13.6l2.16-8.84-1.47.61s-1.2.49-2.77.49c-.75,0-1.47-.11-2.14-.33-3.2-1.04-4.14-3.36-4.18-3.45l-.22-.59-.62.07s-.29.03-.75.03c-1.27,0-3.68-.23-5.59-1.77Z"/>
  <path class="b" d="m114.42,41.91c-.12-2.58-.79-4.66-.79-4.66,0,0-1.87,1.88-2.17,4.21-.3,2.33,1.01,4.33,1.01,4.33,0,0,2.05-1.92,1.96-3.88Z"/>
  <path class="b" d="m105.17,49.71c.02.1.07.38.15.77.83-.28,1.66-.59,2.47-.93.08.2.93,2.4,3.2,2.91,3.07.69,4.52-.08,4.52-.08,0,0-1.73-1.82-3.83-2.76-1.51-.67-2.85-.43-3.5-.24,4.99-2.15,9.4-5.28,11.82-8.16.48-.57.76-1.09.91-1.5.57-.18,1.73-.75,2.35-2.45.76-2.07.77-4.49.77-4.49,0,0-1.59.62-2.99,2.95-.82,1.37-.7,2.85-.57,3.59-.18.23-.44.54-.66.78-.83.9-1.82,1.79-2.9,2.66.27-.28,1.85-1.96,1.77-3.68-.12-2.48-.74-4.47-.74-4.47,0,0-1.73,1.8-2.01,4.04-.27,2.2.9,4.09.94,4.15-2.69,2.14-6.01,4.1-9.35,5.52.35-.31,2.14-1.99,2.08-3.74-.09-2.55-.76-4.62-.76-4.62,0,0-2.02,1.83-2.38,4.12-.34,2.15.83,4.04.98,4.27-.79.33-1.57.62-2.35.89.03.12.05.24.07.33l.03.13Z"/>
  <path class="b" d="m104.38,49.87c.02.11.08.43.17.88.26-.08.51-.18.77-.26-.08-.39-.13-.67-.15-.77l-.03-.13c-.02-.09-.04-.21-.07-.33-.26.09-.51.18-.77.26.03.14.05.26.07.36Z"/>
  <path class="b" d="m112.93,46.97s1.54,2.32,3.46,2.52c2.52.27,4.65-.26,4.65-.26,0,0-1.7-1.88-3.91-2.53s-4.19.26-4.19.26Z"/>
  <path class="b" d="m125.4,42.8s-1.88-.46-3.99-.55c-2.18-.09-3.87,1.41-3.87,1.41,0,0,2.28,1.66,4.05,1.29,2.33-.49,3.8-2.15,3.8-2.15Z"/>
</svg>