<?xml version="1.0" encoding="UTF-8"?>
<svg id="a" data-name="Layer 1" xmlns="http://www.w3.org/2000/svg" width="408.14" height="426" viewBox="0 0 408.14 426">
  <defs>
    <style>
      .b {
        stroke-width: 0px;
      }
    </style>
  </defs>
  <path class="b" d="m287.29,425.87c-22.55-.07-45.05.31-67.67-.05-16.02.34-33.11-5.41-41.64-19.61-8.92-14.25-9.43-33.18-1.35-47.86,3.45-6.38,8.37-11.84,13.45-16.99,19.08-18.36,39.44-42.72,64.11-51.31,15.16-5.84,32.54-6.55,48.79-6.52,21.48-.17,42.9-.25,64.36.06,26.11-.4,41.03,14.47,40.63,40.54.24,15.67.19,31.31.1,47.02.93,18.9-7.81,39.15-24.38,48.25-9.78,5.76-21.45,6.44-32.56,6.45-21.27.13-42.59.07-63.84.01Z"/>
  <path class="b" d="m404.23,55.38c-7.08-46.62-61.26-68.56-101.5-47.12-7.25,3.91-13.34,9.4-19.07,15.32-13.4,14-26.56,28.25-40.07,42.15C170.68,139.98,96.81,213.41,24.53,288.26c-32.88,31.82-32.74,90.29.61,121.65,14.01,12.82,34.99,20.12,52.84,13.75,7.41-2.59,13.85-7.85,19.51-13.34,6.35-6.18,12.39-12.66,18.55-19,88.42-93.7,180.44-183.9,269.83-276.67,14.84-15.65,22.25-37.89,18.37-59.29Zm-227.69,103.02c-8.46,71,13.61,142.29-37.26,203.22-1.49,1.9-9.14,10.43-8.76,7.72.77-2.41,4.73-7.57,6.53-10.47,36.32-51.55,29.42-111.6,30.18-170.97.13-16.55,2.35-33.28,11.19-47.73,1.55-2.45,3.27-4.97,3.8-4.02.21,1.86-1.59,6.03-2.82,10.15-1.24,3.96-2.19,8-2.87,12.09Z"/>
  <path class="b" d="m102.11.87c13.09.06,26.57-.07,39.84.08,15.65-.07,33,4.22,42.46,17.54,17.74,26.49,11.87,67.39-9.08,90.5-7.38,8.59-15.82,16.07-23.89,24.04-8.37,8.37-18,15.64-29.21,19.61-17.6,6.45-36.85,3.54-55.22,4.19-31.33-.36-63.09,6.09-62.56-36.63-.14-25.38-1.27-50.81.84-76.11C7.64,27.16,18.01,12.42,33.46,6.02,45.32,1.01,58.79,1.15,71.63.98c10.14-.08,20.35-.14,30.48-.11Z"/>
</svg>