<?xml version="1.0" encoding="UTF-8"?>
<svg id="a" data-name="Layer 1" xmlns="http://www.w3.org/2000/svg" width="1010.18" height="317.67" viewBox="0 0 1010.18 317.67">
  <defs>
    <style>
      .b {
        stroke-width: 0px;
      }
    </style>
  </defs>
  <path class="b" d="m158.71,317.66c-17.2-1.47-16.25-17.17-9.91-29.52,5.57-11.74,13.76-20.98,22.5-30.18,15.67-17.12,34.17-32.53,53.45-46.96,7.14-5.57,9.68-13.97,12.5-22.31.4-1.1,1.44-4.09.92-4.24-.7-.22-2.15,1.51-2.95,2.17-9.16,9.05-23.04,21.63-34.28,20.6-14.6-1.89-5.49-18.27-1.53-26.66,1.78-4.07,2.69-5.85-3.54-2.98-10.62,4.52-24.7,9.8-34.72,14.44-1.3.89-1.21,2.15-.49,4.17,22.88,53.54-81.19,90.41-129.4,88.18-10.19-.55-23.68-.13-29.24-8.58-6.27-9.9,3.41-18.87,10.81-24.6,35.11-28.64,82.33-39.78,123.47-57.83,3.21-1.66,3.16-3.76.8-6.02-26.45-27.74-117.88-32.99-109.15-79.41C48.36,45.6,206.32-2.75,249.58.12c47.27-1.82,56.87,31.51,20.8,65.51-11.71,10.15-34.37,28.4-50.16,26.22-2.28-1.37,2.41-3.69,3.52-4.58,6.74-4.3,13.56-8.89,20.04-13.82,14.95-10.86,42.85-38.46,37.4-56.46-4.4-8.11-20.36-9.38-29.6-9.22C183.69,13.23,93.79,48.57,51.39,95.64c-6.68,6.94-10.37,17.71-6.75,27.13,2.39,7.2,9.33,11.6,15.77,14.93,26.53,14.45,59.71,22.74,84.66,41.37,3.43,2.55,7.41,5.47,11.62,5.86,8.46.55,15.89-5.15,23.63-7.77,10-3.95,20.81-7.87,29.22-14.72,2.48-1.97,4.97-4.37,7.85-5.65,6.57-2.79,9.59,2.52,6.12,7.97-6.03,10.66-14.29,20.6-17.78,32.73-.37,3.7,3.83,1.16,5.65.14,16.15-9.61,27.67-23.08,37.23-36.92,3.27-5.3,13.42-8.23,13.09.66-2.04,9.66-6.98,18.64-10.07,27.94-1.83,5.2,1.1,2.63,3.47.2,5.65-5.76,12.02-11.2,16.44-17.82,17.63-36.95,34.16-77.12,67.26-100.25,3.32-2.36,7.83-4.52,11.76-3.04,6.17,2.46,4.13,10.59,1.93,15.45-13.02,31.18-35.24,59.61-56.57,80.5-3.16,3.14-6.02,6.32-8.21,10.38-3.01,3.77-10.35,30.69,1.42,21.53,5.92-5.42,11.4-11.5,16.92-17.46,1.74-1.96,3.35-4.01,4.58-6.33,3.14-5.31,3.8-14.16,10.3-15.5,12.35.03,2.08,22.01.89,28.92-6.41,24.9,22.69-16.99,25.48-21.27,1.91-2.69,6.22-9.2,9.27-4.71,1.36,3.05-.78,7.03-2.6,9.72-11.15,17.19-38.54,47.16-44.56,28.12-.92-1.74-.76-8.17-3.14-7.91-1.33.3-3.05,2.54-4.29,3.73-11.92,12.67-27.3,20.24-30.98,4.69-.59-2.43-.86-5.12-.95-7.59-.19-2.23.31-6.27-2.49-4.34-7.89,7.23-16.13,14.11-21.85,23.42-2.65,4.48-4.33,9.16-6.15,13.84-14.66,36.29-39.88,90.08-80.64,94.06h-.2Zm68.63-101.69c-.56-.23-1.87.53-3.38,1.68-13,10.34-22.73,18.91-32.93,29.01-59.01,54.75-43.92,102.29,11.16,19.62,9.41-15.05,15.94-27.57,24.13-45.37.65-1.52,2-4.42,1.08-4.92l-.05-.02Zm-82.97-18.6c-1.74-.16-3.8.56-5.55,1.18-20.81,7.81-41.66,17.25-61.73,27.11-1.79,1.07-86.02,43.93-58.38,51.15,37.64,5.32,109.14-24.34,127.73-58.72,2.2-4.4,3.44-10.28,2.3-15.55-.47-2.34-1.7-4.85-4.22-5.16l-.15-.02Zm201.37-119.89c-21.49,20.81-37.6,46.93-51.82,76.39-.46,1.03-1.79,3.7-1.33,4.08.64.05,2.67-2.34,3.52-3.29,22.65-26.61,39.79-50.52,49.66-77.17h-.03Z"/>
  <path class="b" d="m250.92,193.2c.76.21,3.03-1.86,4.01-2.87,8.9-8.68,18.24-17.09,22.42-29.02,13.65-32.64,31.23-66.31,59.71-87.98,5.34-4.77,16.77-8.55,17,2.2-.07,2.81-1.16,5.79-2.26,8.43-13.45,32.94-36.83,60.48-61.48,85.73-5.16,6.61-8.17,15.7-8.21,24.11.11,15.28,18.71-9.16,22.14-12.52,2.88-3.25,5.53-6,7.32-9.75,1.49-2.98,2.42-6.35,3.97-9.29,1.58-3.49,5.76-6.68,9.04-3.59,2.74,2.69,1.79,8.67.05,15.18-.77,4.39-6.58,18.05-3.48,20.65,1.97.65,3.93-1.64,6.36-3.95,1.91-1.95,3.79-3.93,5.57-6,5.11-5.95,9.55-12.41,13.97-18.89,1.67-2.52,4.21-6.14,6.43-6.58,4.96-.48,2.31,6.87.24,9.33-8.64,12.22-23.08,34.78-37.54,34.24-6-.65-7.95-7.34-8.08-12.47-.46-3.68-2.85-.86-4.46.74-15.59,17.57-32.83,23.82-33.16-.58-.08-2.09-.04-4-.3-4.98-.1-.43-.28-.8-.67-.9-1.49-.05-2.95,1.94-4.14,2.96-8.8,8.58-19.16,16.99-23.6,29.18-9.51,27.33-22.75,53.12-41.75,75.39-10.45,12.67-29.27,29.98-46.92,24.13-9.86-3.91-9.18-15.96-5.13-24.2,14.85-32.53,45.46-55.55,73.2-77.32,10.38-7.27,13.25-15.43,17.11-27.3,2.24-6.02,1.27-5.8-2.83-1.55-9.76,9.39-21.03,20.84-34.92,20.81-19.2-1.95,7.72-32.82-2.09-30.35-11.23,4.04-22.2,9.05-33.07,13.36-1.31.56-2.75,1.3-3.65,2.28-1.32,1.38-1.48,3.27-.89,5.53,18.7,46.07-59.3,76.27-96.18,83.67-22.41,5.57-88.75,6.34-55.22-26.18,35.22-31.2,83.08-41.68,125.21-60.28,1.81-.77,4.72-2.2,4.83-3.89-12.54-21.22-70.33-32.56-92.89-48.03C-26.28,91.04,134.08,26.28,169.99,15.48c36.36-11.68,130.07-34.23,120.57,17.52-2.07,10.39-8.15,18.21-14.91,26.18-13.89,15.61-34.22,31.39-55.34,32.28-1.37-.82,2.05-2.57,3-3.33,23.17-14.8,47.66-32.36,57.49-58.48,1.71-4.51,3.05-10.33-.2-14.35-3.56-4.44-11.26-6.27-17.38-7.27-64.06-1.62-126.66,26.95-180.53,59.93-17.83,10.39-54.7,40.48-34,62.07,3.84,3.81,8.74,6.46,13.5,8.88,11.56,5.84,23.22,11.54,35.26,16.28,12.62,4.67,23.71,9.14,34.93,16.03,24.81,17.28,20.99,18.12,50.8,5.66,7.89-3.66,14.66-5.83,21.76-10.34,5.04-3.31,9.83-9.6,15.06-9.86,5.22-.26,5.21,4.7,2.9,8.15-2.03,4.08-22.48,33.02-16.92,35.52,16.15-5.62,30.84-22.56,40.81-36.3,2.1-2.91,4.29-6.39,7.86-7.46,2.44-.76,4.95-.2,6.01,1.78,1.54,2.72-.63,7.57-1.96,11.14-1.82,4.74-3.67,9.47-5.52,14.19-.84,2.66-3.82,8.2-2.31,9.49h.06ZM27.56,278.13c38.77-1.69,122.02-29.89,122.05-75.12-.29-2.14-1.06-4.23-2.54-5.32-2.79-2.09-7.41-.06-10.57,1.15-38.78,15.87-77.3,33.01-111.59,57.31-4.33,3.72-8.67,8.08-11.56,13.15-4.29,8.1,8.01,8.56,14.05,8.83h.17Zm200.59-62.53c-1.1-1.15-3.75,1.16-5.21,2.21-15.24,12.29-25.79,21.68-38.06,34.49-67.6,74.82-16.47,78.27,22.64,6.4,7.21-12.27,13.05-23.72,19.79-38.69.82-1.89,1.29-3.66.87-4.34l-.04-.06Zm62.61-54.86c22.84-23.29,41.7-50.94,55.09-80.96.46-1.12,1.64-3.65,1.17-4.2-.69-.21-2.55,1.9-3.37,2.74-22.16,24.17-40.87,52-52.91,82.4l.03.02Z"/>
  <path class="b" d="m245.2,279.47c-1.48-.09-2.56-.46-3.62-1.24-14.61-15.07,85.5-28.36,100.96-30.93,59.52-9.07,125.76-10.62,190.66-10.78,3.38-.7.34-3.56-.87-5.05-12.69-13.05-1.69-26.45,10.23-36,7.91-6.33,16.62-11.55,25.4-16.31,6.71-3.8,13.14-6.03,18.43-11.46,2.72-2.85,4.74-6.56,6.51-10.14,10.85-22.31,21.72-44.09,32.91-66.08,2.62-5.54,4.86-11.29,6.09-17.3.69-3.89,2.49-8.75,7.25-8.36,3.25.2,5.97,2.72,7.05,5.79,3.39,9.39-4.79,22.56-8.33,31.43-8.36,17.72-16.97,35.15-25.47,52.68-.89,1.93-2.64,5.12.61,5.23,2.91.22,9.72-1.35,12.75-1.13,3.73.19.86,2.3-2.18,3.32-6.02,1.99-13.57,2.73-18.23,7.04-2.69,2.39-4.44,5.71-6,8.94-5.54,11.69-10.83,23.53-16.5,34.97-.72,1.41-1.8,3.18-3.05,3.75-2.6.94-3.83-2.62-4.32-5.82-.5-4.32.31-8.42,1.48-13.07,1.35-5.21,3.31-10.58,4.57-15.09.71-2.49,1.01-5.42-2.66-3.92-16.67,8.46-32.22,18.15-39.83,34.28-9.78,22.93,21.35,22.35,35.92,19.95,51-5.59,100.36-33.65,137.73-75.24,3.49-4.06,6.6-8.23,9.32-12.47,26.5-40.2,15.9-90.31-42.74-93.12-42.55-1.28-84.65,10.29-122.35,30.25-16.48,8.38-39.82,24.84-39.73,32.47-1.75,15.43,40.97,10.96,54.24,10.14,1.3-.08,12.5-.93,9.32.78-7.17,3.46-73.49,12.94-73.8-9.62-.04-4.51,2.57-10.07,5.57-13.76,36.74-38.91,95.92-56.78,146.81-59.53,60.95-6.27,111.41,42.99,81.3,101.63-13.8,25.99-35.54,47.09-59.7,62.47-18.73,12.32-39.53,20.47-59.72,28.59-.54.48.16.76,1.8.9,37.48,1.15,75.12,3.89,112.33,8.71.98.13,1.93.32,2.76.55,1.79.5,2.87,1.17,2.73,1.69-.1.64-2.08,1.02-4.59.87-43.35-4.68-87.4-6.88-131.24-7-16.91.55-33.74,1.41-50.65,1.63-104.06.54-207.77,10.1-309.01,35.37h-.15Zm106.46-27.94c2.85.35,7.99-.64,16.76-1.23,19.71-1.73,46.19-4.05,66.12-5.8,2.14-.32,11.06-.52,8.85-1.46-11.83.96-81.29,6.87-91.73,8.48h0Z"/>
  <path class="b" d="m635.16,68.06c2.11-2.56,6-2.24,8.45.15,3.25,2.99,3.5,8.26,2.36,12.45-7.9,27.3-23.95,51.4-35.1,77.64-.8,3.88,2.98,3.31,6.62,2.85,2.45-.32,5.72-.83,7.54-.71.81.06,1.65.09,1.5.68-.12.58-3.42,1.76-5.01,2.12-6.18,1.56-12.74,2.84-16.98,7.11-2.57,2.51-4.25,5.84-5.79,9.07-5.69,11.85-11.06,24.01-17.06,35.8-2.91,4.85-5.38.75-5.72-4.01-.84-10.32,5.26-21.37,6.88-31.12.07-3.06-3.44-1.17-5.17-.3-16.22,8.86-35.52,20.09-40.78,39.11-2.55,11.45,8.96,16.16,19.02,16.79,62.18-.11,117.72-32.56,158.69-77.55,3.74-4.51,7.15-9.49,10.11-14.76,13.19-23.26,19.15-56.7-3.23-75.82-42.37-31.99-124.12-6.4-166.96,16.64-67.06,38.1-35.6,47.68,19.6,42.26.75-.02,6.11-.52,5.38.2-21.69,6.51-79.85,11.37-70.94-14.83,1.13-3.28,3.32-6.77,5.74-9.57,29.03-30.04,70.82-45.61,111.26-53.78,62.89-16.79,145.06,12.82,118.86,87.4-4.5,13.3-12.47,25-21.35,35.59-26.53,31.68-65.52,50.84-103.11,65.69-.56.51.13.81,1.78.96,38.87,1.36,77.57,3.71,116.05,9.18,6.12,1.59-.05,1.97-3.2,1.44-128.02-12.3-257.59-6.3-385.16,9.24-33.25,4.68-66.1,11.08-98.44,20.27-3.84,1.24-10.74,1.57-10.48-3.66.54-3.45,5.46-5.3,8.78-6.34,89.97-29.24,187-30.5,280.98-30.89,1.86-.12,5.59.1,5.2-2.21-.48-1.76-2.39-3.43-3.61-4.92-5.21-5.7-5.82-11.6-3.48-17.37,4.87-11.54,19.23-21.12,30.32-27.88,8.4-5.39,17.84-8.86,25.72-14.74,3.05-2.45,5.3-5.55,7.2-9.04,11.32-22.8,22.64-45.56,34.02-68.32,1.64-3.35,3.26-6.77,4.56-10.24,2.13-4.59,1.91-10.31,4.85-14.45l.11-.13Z"/>
  <path class="b" d="m770.52,296.48c-14.01-.18-30.78-5.97-26.4-22.7,2.8-10.99,12.48-20.71,21.53-27.4,24.05-18.78,51.82-33.31,81.95-45.01,7.75-3.21,10.61-10.88,13.61-18.36.53-1.3,1.32-2.96,1.45-4.19-.05-1.35-2.24.63-3,1.15-9.79,7.73-24.9,21.67-34.26,15.97-4.82-3.16-6.74-3.29-12.01-.61-18.27,8.45-18.62-4.6-11.56-22.6.71-2.11.86-3.29.15-3.13-1,.31-2.07,1.49-3,2.33-6.57,6.39-12.76,13.25-19.19,19.81-2.02,2.01-4.73,4.07-7.65,3.87-6.8-.65-5.42-9.67-4.03-14.18.39-1.74.31-2.45-.63-1.94-1.21.61-4.49,3.83-6.73,5.68-5.02,4.27-10.87,9.18-16.81,11.64-10.16,4.6-12.98-6.55-9.7-13.79,3.41-8.05,14.66-34.69,25.37-30.26,6.53,4.58-10.39,26.65-12.67,31.65-.54.99-1.47,2.49-1.01,3.43.29.29,1.04.1,2.06-.45,12.07-7.97,20.42-18.2,30.13-30.06,2.22-2.7,5.12-6.11,8.78-6.12,2.86-.05,5.06,2.45,4.88,5.28,1.34,2.75-14.28,27.65-4.49,18.82,7.65-7,14.86-16.32,23.81-20.57,5.32-2.63,11.67-.64,10.09,6.22-2.38,8.12-7.44,15.25-10.26,23.17-3.22,7.94,1.45,6.72,6.29,2.03,3.55-3.34,5.46-7.97,7.84-12.14,9.27-15.45,28.52-28.87,46.42-25.52,2.42.38,7.92,4.25,5.28,6.37-1.07.66-3.36.33-4.81.15-5.3-.96-10.57.65-14.84,3.81-9.22,6.81-17.31,15.56-23.12,25.73-.67,1.25-1.72,3.4-1.29,4.47,1.05,1.58,4.09-.66,5.45-1.42,9.74-6.36,18.14-14.76,27.05-21.97,1.91-1.47,4.02-2.68,6.38-3.25,4.57-1.24,11.02.4,9.83,6.14-.99,5.07-3.49,9.92-5.18,14.82-1.54,4.35-5.11,10.72,1.51,8.72,36.24-11.73,79.32-23.9,119.88-12.17,2.63.95,5.03,2.4,7.11,4.51,4.27,4.34,6.89,10.74,4.54,16.28-.62,1.6-2.13,3.39-3.03,2.06-.84-1.08-.87-2.86-1.15-4.24-.86-7.46-4.89-11.76-11.79-13.85-19.24-4.93-38.6-3.07-58.35.71-18.39,3.79-36.71,8.55-54.72,13.21-2.9.76-5.99,1.63-8.4,3.35-1.95,1.36-3.41,3.27-4.57,5.39-18.12,39.56-51.32,87.84-96.57,89.18h-.19Zm78.93-88.65c-.38-.83-2.57.15-3.52.54-27.44,11.82-102.56,48.04-91.58,77.57,3.45,4.28,11.03,3.79,16.08,2.91,35.7-7.71,65.19-49.26,79.04-80.96l-.02-.06Z"/>
  <path class="b" d="m810.29,190.56c1.32.48,4.12-1.17,6.32-3.12,2.63-2.2,4.67-5.2,6.11-8.22,6.79-17.71,40.34-40.18,52.86-27.64,2.74,3.22-.2,3.35-3.08,2.96-16.43-2.35-31.29,16.67-39.41,30.95-.66,1.31-1.9,3.8-.68,4.65,1.62.71,4.29-1.05,5.85-2.01,9.55-6.27,17.89-14.32,26.56-21.57,1.64-1.32,3.42-2.48,5.4-3.2,4.14-1.68,11.51-1.25,10.68,4.78-1.36,6.81-4.6,12.79-6.88,19.51-.44,1.49-1.54,3.74-.51,5.01.92,1.02,3.86.05,5.4-.44,35.29-11.41,72.2-21.33,109.09-14.12,5.75,1.12,11.86,2.28,16.14,6.6,4.55,4.48,6.89,11.38,3.82,16.95-.37.68-1.28,1.88-1.96,1.04-.73-.84-.69-3.84-1.21-6.06-1.21-5.44-4.76-9.36-9.91-11.85-27.48-12.74-94.5,8.55-119.7,14.73-5,1.42-8.35,6.73-10.44,11.46-12.27,26.22-27.92,51.08-51.41,68.8-14.13,10.67-31.53,18.29-49.55,15.56-9.1-1.1-20.28-6.54-19.8-16.97.04-2.79.89-5.79,2.25-8.51,21.81-35.34,64.49-51.71,101.33-67.79,8.56-3.64,11.59-12.53,14.95-20.82,1.07-2.67,3.29-6.91-1.43-3.06-10.04,7.77-26.26,23.62-36.12,16.92-1.85-1.2-3.67-2.51-5.99-2.22-4.24.75-8.97,4.15-13.52,4.25-9.93.83-7.77-11.68-5.15-17.92.3-1.56,5.18-11.63,2.77-11.2-.82.24-2.15,1.43-2.98,2.22-6.8,6.57-13.29,13.64-19.85,20.46-1.84,1.85-3.97,3.99-6.63,4.29-3.8.48-6.5-3.32-6.21-6.96.05-1.94.67-4.08,1.3-6.06,1.36-4.01,1.18-5.21-2.33-1.95-4.86,4.52-9.91,8.79-15.63,12.48-23.62,15.15-20.59-8.33-5.03-29.71,3.13-4.02,5.76-9.79,11.11-9.95,1.26.04,2.48.7,3.12,1.79,2.51,5.17-4.19,13.16-6.5,17.97-1.67,2.89-3.35,5.77-4.99,8.68-4.09,6.71-3.56,9.63,3.06,4.53,11.18-8.53,20.03-19.43,28.98-30.28,2.92-3.73,9.29-6.04,10.82-.07.49,2.54-1,5.56-2.34,8.39-1.61,3.34-3.19,6.67-4.66,10.13-2.62,5.96-1.07,5.9,2.43,2.61,7.28-6.72,13.93-14.8,22.17-20.01,5.05-3.64,13.5-3.81,11.76,4.55-.59,5.22-14.78,26.8-10.46,29.43l.09.03Zm40.09,16.35c-.67-.67-3.41.56-4.65,1.1-33.34,14.43-70.31,31.85-90.15,61.75-3.16,4.43-5.87,11.55-2.43,16.28,2.28,3.33,7.05,3.98,10.98,3.67,41.69-3.48,66.86-45.01,85.7-79.96.67-1.37.96-2.38.59-2.8l-.04-.05Z"/>
  <path class="b" d="m354.31,203.57c-27.43-2.05,25.11-66.98,47.1-49.89,1.11.86,3.01,3.3,1.93,4.29-.97.89-2.87.58-4.2.58-12.36-.63-23.2,11.24-30.34,21.05-1.92,2.66-14.67,21.59-5.18,14.92,11.36-8.06,26.42-30.18,36.83-30.05,3.9.08,4.58,3.83,3.69,7.39-.49,2.26-1.39,4.69-2.42,7.15-.57,2.16-7.42,14.3-3.84,14.18,1.13-.05,2.87-1.15,4.04-1.91,10.24-6.85,18.97-16.04,24.81-25.01,1.76-2.66,3.63-5.88,6.89-6.75,5.38-1.3,7.74,3.37,5.94,8.29-1.07,3.67-3.32,7.76-4.99,11.42-.93,2.04-1.31,3.36-.77,3.41,1.13-.13,2.75-1.93,3.77-2.81,5.68-5.34,11.36-10.76,17.16-15.99,3.39-2.9,6.75-6.7,11.31-7.52,6.51-.9,8.81,5.06,6.56,10.67-2.28,7.7-10.82,22.3-6.07,28.13,3.45,3.62,10.15,2.48,14.7,1.56,11.72-2.54,22.67-7.95,32.58-14.72,3.39-2.12,6.84-5,10.59-6.25,5.16-1.26-.54,4.2-1.85,5.25-17.13,15.13-35,23.81-55.07,22.58-17.51-.88-16.58-11.69-12.54-26.24,1.68-6.26-1.63-3.5-4.13-1.29-6.8,6.04-13.07,12.7-19.25,19.37-1.96,2.06-4.1,4.27-6.89,5.04-3.37,1.04-7.27-.63-7.72-4.25-.38-2.41.6-5.59,1.27-8.26,2.58-10.24-11.34,14.01-26.26,12.21-4.34-.44-6.39-3.39-6.59-7.64-.09-1.54.17-3.39.25-4.79.1-1.47,0-2.42-.56-2.55-1.11-.1-2.68,1.58-3.64,2.39-7.87,7.2-15.9,15.93-26.99,16.05h-.17Z"/>
  <path class="b" d="m433.56,183.3c1.37-.04,3.13-1.98,4.29-2.97,5.68-5.3,11.33-10.65,17.07-15.77,3.98-3.27,8.33-8.72,14.03-7.51,8.3,2.91,2.04,12.54.12,18.32-2.11,5.82-6.46,14.42-2.94,19.69,3,3.7,9.51,3.13,13.89,2.37,13.66-2.65,26.3-8.97,37.49-17.16,2.45-2.04,13.49-7.67,6.18-.51-11.25,10.44-24.8,18.43-39.89,21.92-8.2,1.74-23.39,3.58-28.98-4.12-3.77-6.39-.43-14.2.98-20.74,1.31-5.2-.37-5.36-3.73-2.42-7.37,6.35-14.13,13.41-20.81,20.56-1.98,2.04-4.19,4.31-6.99,5.01-3.56.95-7.01-1.59-6.95-5.35-.06-2.52,1.18-5.55,1.88-8.22.77-2.8.04-3.23-1.62-1.85-5.24,4.81-10.21,10.33-16.79,13.28-11,4.54-17.13.41-14.42-11.78.85-4.81-2.2-1.66-3.88-.22-4.46,4.03-8.8,7.88-13.57,11.54-2.11,1.59-4.35,3.05-6.81,4.06-10.8,4.34-18.43-.69-13.77-12.53,7-17.78,38.32-48.46,53.59-33.48,1.12,1.25,1.19,2.27.02,2.58-3.77.42-7.99-.82-11.53,1.16-11.42,5.91-25.22,21.68-30.91,34.13-1.93,4.36-.06,4.6,3.28,2.2,12.57-8.29,27.47-32.1,38.97-30.15,6.48,3.44-4.38,19.75-5.42,25.23-1.53,5.05,2.05,3.57,4.72,1.76,10.5-6.77,19.24-15.38,26.13-25.8,1.76-2.54,3.68-5.78,6.84-6.46,2.09-.49,4.31.49,5.11,2.35,1.02,2.13.09,5.05-1.08,7.79-1.18,2.74-2.37,5.41-3.54,8.11-.94,2.4-1.89,4.38-1.03,4.98l.05.02Z"/>
  <path class="b" d="m769.03,142.65c-2.12-.36-4.56-2.36-4.95-4.77-.51-2.99,1.33-5.83,2.71-8.38,2.74-4.83,5.05-9.58,9.28-12.51,2.61-1.98,6.22-2.4,9.08-.7,2.07,1.07,3.74,3.02,2.97,5.34-1.18,4.49-13.22,22.38-18.95,21.04l-.16-.03Z"/>
  <path class="b" d="m781.47,115.49c2.43.06,4.84,1.47,5.8,3.17,1.68,3.46-1.58,6.94-3.39,9.71-3.22,4.4-6.67,10.72-11.03,12.97-2.92,1.71-7.3.5-8.27-2.87-.82-2.91,1.01-5.81,2.31-8.34,3.41-5.76,7.02-14.14,14.38-14.65h.2Z"/>
</svg>