<?xml version="1.0" encoding="UTF-8"?>
<svg id="a" data-name="Layer 1" xmlns="http://www.w3.org/2000/svg" width="214.63" height="235.05" viewBox="0 0 214.63 235.05">
  <defs>
    <style>
      .b {
        stroke-width: 0px;
      }
    </style>
  </defs>
  <path class="b" d="m153.13,224.54c-.38-.07-.77-.23-1.14-.2-4.48.38-8.97.78-13.45,1.18-7.01.62-14.02,1.24-21.03,1.85-1.21.11-2.43.17-3.62.36-.76.12-1.07-.08-1.26-.83-1.16-4.67-2.34-9.34-3.55-14-3.15-12.08-6.32-24.16-9.5-36.24-2.05-7.77-4.15-15.53-6.17-23.31-.78-3-2.05-5.55-4.98-6.99-.21-.1-.39-.5-.38-.76.45-11.42.65-22.86,2.94-34.12.95-4.67,2.29-9.23,4.59-13.43,1.66-3.03,3.84-5.58,7.02-7.15.33-.16.56-.55.71-.99-1.71.22-3.12.96-4.38,2.03-2.77,2.36-4.53,5.4-5.9,8.7-2.48,5.95-3.79,12.21-4.41,18.59-.59,6.11-1,12.24-1.49,18.43-.13-.66-.25-1.29-.36-1.92-1.08-5.89-3.28-11.44-5.21-17.07-1.38-4.02-2.63-8.06-3.12-12.32-.91-7.89,1.86-14.2,8-19.11,4.12-3.3,8.91-5.06,14.07-5.91,2.53-.41,2.55-.36,2.9,2.23.3,2.26.53,4.54.84,6.8.11.81-.02,1.41-.91,1.62-.1.02-.19.09-.29.14-2.36,1.18-2.84,2.26-2.17,4.87.53,2.06,1.82,3.54,3.66,4.53,2.82,1.51,5.86,1.75,8.96,1.45,7.37-.71,13.24-4.41,18.44-9.38,1.28-1.23,2.41-2.62,3.71-4.05-2.98-1.75-3.75-4.61-4.21-7.57-.64-4.13-1.13-8.27-1.71-12.41-.05-.35-.26-.67-.39-1.01-.29.21-.65.36-.86.63-3.25,4.12-7.11,7.63-11.07,11.03-2.35,2.02-4.82,3.92-7.3,5.79-1.19.89-2.53,1.58-3.84,2.38.24,3.66.49,7.39.74,11.12l-.35.05c-.23-1.18-.52-2.35-.68-3.54-.61-4.67-1.17-9.35-1.75-14.03-.06-.51-.03-.95-.79-.98-11.01-.45-17.27-6.69-20.3-15.82-1.63-4.92-2.2-9.95-1.46-15.1.08-.58-.01-.97-.51-1.37-1.46-1.19-1.72-2.93-1.8-4.65-.07-1.53.09-3.07.07-4.6,0-.53-.1-1.23-.44-1.54-.93-.87-.36-1.77-.11-2.57.11-.35.85-.66,1.34-.72,4.23-.46,8.34.08,12.29,1.69,1.8.73,3.34,1.77,3.83,3.89.11-.01.23-.02.34-.04.35-.91.69-1.83,1.04-2.74.09.02.18.04.27.06v2.56c.94.31,1.88.61,2.89.94,2.01-3.3,5.24-2.65,8.25-2.33,4.58.49,8.91,1.94,13.04,4,2.54,1.27,5.14,2.42,7.71,3.63-.72-4.12-1.4-8.04-2.08-11.9-.21,1.53-.44,3.21-.67,4.88-1.01-2.62-1.36-5.33-1.18-8.08.18-2.69.56-5.37.86-8.11-5.99,1.65-12.13,1.77-18.3,1.01-1.76-.22-3.49-.59-5.2-1.04,3.15-.71,6.3-1.42,9.45-2.12-.02-.05-.04-.09-.06-.14-3.74.2-7.47.49-11.21.57-2.42.05-4.85-.17-7.27-.37-.81-.07-1.32.13-1.81.78-2.44,3.26-4.27,6.83-5.52,10.71-.14.44-.27.88-.43,1.39-.46-.07-.86-.13-1.46-.22.66-2.01,1.29-3.89,1.92-5.81-2.15-2.23-1.79-5.4,1.26-9.19-1.05.2-1.92.37-2.79.54-1.46.29-2.04-.16-1.92-1.66.19-2.47,1.25-4.59,2.77-6.5,2.79-3.49,6.49-5.52,10.77-6.57.34-.08.69-.15,1.26-.28-.51-.29-.92-.42-1.19-.69-.41-.4-1.02-.92-.99-1.36.03-.42.69-.94,1.19-1.15.78-.32,1.64-.49,2.49-.6,6.19-.82,12.34-.24,18.45.79,5.62.94,11.13,2.34,16.21,5.01,1.7.89,3.34,1.94,4.88,3.09,2.17,1.61,3.94,3.62,5.11,6.22.12-.97.19-1.96.37-2.92.08-.44.39-.83.6-1.25.38.33.9.58,1.1.99.76,1.52.37,3.06-.22,4.64,4.57.99,6.48,4.43,7.77,8.41.24.74.41,1.52.55,2.29,1.51,8.39-.03,16.33-3.6,23.96-1.55,3.32-3.53,6.37-6.05,9.05-.26.28-.44.64-.61.99-1.18,2.35-2.87,4.25-5.06,5.71-.4.27-.78.62-1.07,1.01-1.8,2.48-3.58,4.99-5.35,7.49-.14.19-.23.42-.44.8,1.28-.09,2.4-.18,3.52-.26,7.72-.5,15.38-.27,22.76,2.32,2.4.84,4.73,2.04,6.85,3.44,4.47,2.95,5.83,8.22,5.52,13.16-.67-.46-1.31-.76-1.75-1.24-1.25-1.38-2.74-2-4.58-1.82-2.73.26-5.15,1.38-7.5,2.71-3.98,2.26-7.44,5.14-10.38,8.68.23-.17.47-.34.7-.53,3.7-3.05,7.5-5.98,11.91-7.93,1.68-.74,3.5-1.21,5.29-1.64,1.29-.31,2.42.24,3.41,1.13.57.51,1.25.93,1.94,1.27,2.9,1.45,5.82,2.86,8.73,4.3.37.18.7.47,1.25.85-.76.15-1.29.25-1.83.35-4.61.89-8.62,3.13-12.57,5.53-4.84,2.96-9.6,6.08-14.63,8.68-4.42,2.29-9.16,3.98-13.76,5.91-1.48.62-2.98,1.19-4.47,1.8-.29.12-.6.27-.81.5-.13.14-.15.46-.09.67.03.1.37.19.54.15.44-.1.86-.27,1.27-.41-1.38,3.67-2.74,7.3-3.99,10.62,0-1.47-.07-3.3.01-5.12.31-7.11,1.57-14.03,4.24-20.67,2.92-7.24,7.46-13.29,13.41-18.31,1.16-.98,1.22-1.46.22-2.66-1.82-2.17-4.23-3.43-6.89-4.09-2.03-.5-4.15-.63-6.23-.91-.28-.04-.58.06-.87.1-.01.1-.02.2-.04.3.37.11.73.26,1.1.31,3.17.44,6.26,1.14,9.06,2.76,1.31.75,2.49,1.65,3.35,3-1.11.99-2.19,1.91-3.22,2.88-7.91,7.47-12.26,16.79-14.16,27.38-1.1,6.11-1.23,12.29-1.18,18.47.14,17.65.33,35.29.51,52.94,0,.25.03.49.05.81h1c.03-.29.09-.56.09-.83-.04-5.61-.08-11.22-.12-16.83-.09-11.25-.23-22.51-.21-33.76,0-1.91.56-3.9,1.2-5.73,1.26-3.59,2.75-7.11,4.2-10.63.17-.4.6-.84,1-.98,10.34-3.58,19.85-8.73,28.86-14.87,3.87-2.64,8.01-4.78,12.62-5.97,2.6-.67,4.54-.19,6.33,1.89,2.69,3.13,4.73,6.62,6.32,10.39,7.38,17.48,13.88,35.28,18.97,53.57,2.13,7.67,4.08,15.39,4.96,23.33.52,4.68.44,9.34-.38,13.98-1.15,6.52-4.79,10.8-11.2,12.74-4.84,1.46-9.76,2.52-14.77,3.03-8.17.83-16.36,1.41-24.55,2.1-.32.03-.64,0-1.09,0,2.31-6.06,2.04-12.03-.51-17.84-2.55-5.83-6.79-9.97-13.02-11.9,0-.1.01-.19.02-.29,1.92-.72,3.82-1.5,5.77-2.14,7.6-2.5,15.3-4.63,23.18-6.07,3.65-.67,7.33-.51,10.98.17.2.04.41.06.62,0-3.99-1.93-8.19-2.11-12.51-1.5,3.84-3.46,8.66-3.75,13.43-4.26-5.42-.69-10.59-.35-14.89,3.65-4.65-15.62-9.31-31.24-13.96-46.87-.05,0-.09,0-.14,0,.4,2.44.58,4.94,1.23,7.3,2.01,7.33,4.21,14.61,6.32,21.91,1.82,6.28,3.62,12.56,5.47,18.96-1.89.47-3.68.9-5.46,1.36-6.67,1.72-13.36,3.35-19.74,6.01-.52.22-1.07.45-1.5.8-.32.27-.68.77-.64,1.12.04.31.56.71.94.82,3.44,1.02,6.49,2.73,8.81,5.45,5.63,6.59,7.3,14.04,4.56,22.37-.28.85-.73,1.11-1.62,1.14-2.1.06-4.19.27-6.26.42.12.84.28,1.58.31,2.32.09,2.44-1.25,4.03-3.66,4.3-7.99.89-15.98,1.75-23.97,2.61-4.94.53-9.86,1.2-14.81,1.53-3.33.22-6.71.08-10.05-.09-7.63-.4-15.26-.94-22.89-1.4-9.23-.56-18.47-1.11-27.7-1.66-7.45-.44-14.9-.88-22.36-1.33-4.2-.26-6.35-1.97-7.54-6.05-2.52-8.6-5.01-17.21-7.49-25.82-4.32-14.98-8.62-29.97-12.93-44.96-.79-2.74,0-4.9,2.22-5.75.87-.34,1.88-.44,2.83-.44,8.29-.03,16.58-.02,24.86-.03,17.76,0,35.51,0,53.27-.01,4.33,0,6.78,1.84,7.9,6.05,3.41,12.76,6.83,25.52,10.2,38.3,3.12,11.83,6.17,23.68,9.25,35.53.45,1.73.5,1.78,2.26,1.62,11.55-1.11,23.1-2.22,34.65-3.33,1.77-.17,3.54-.33,5.31-.49.03-.17.05-.34.08-.51ZM83.29,50.01c-.06.14-.11.24-.13.34-.05.25-.09.49-.11.74-.47,5.81.37,11.41,2.88,16.69,3.62,7.62,9.67,11.6,18.13,11.49,9.95-.13,18.03-4.11,23.8-12.38.45-.64.78-.64,1.48-.35,1.06.45,2.22.89,3.35.93,6.4.18,12.09-6.39,11.29-12.92-.43-3.5-3.14-5.37-6.59-4.55-2.21.52-3.9,1.85-5.49,3.38-.28.26-.7.37-1.06.56-.14-.41-.39-.82-.4-1.24-.02-.96.06-1.93.14-2.89.05-.6-.18-.88-.75-1.08-2.02-.72-4.02-1.49-6.02-2.25-2.11-.8-2.54-.54-3.25,1.56-.55,1.65-1.19,3.29-1.98,4.83-.87,1.7-2.41,2.67-4.32,2.76-3.77.18-7.4-.49-10.8-2.18-1.45-.72-2.45-1.93-2.69-3.54-.26-1.83-.35-3.68-.44-5.53-.06-1.18-2.01-2.52-3.06-2.02-.14.07-.26.24-.33.4-1.34,3.22-2.67,6.45-4.06,9.8.78.13,1.46.26,2.16.34.66.08,1,.36.82,1.06-.25,1-.48,2.02-.81,3-.07.23-.49.34-.74.51-.1-.26-.31-.54-.28-.78.1-.76.3-1.52.47-2.34-.96-.15-1.8-.29-2.64-.4-.67-.09-.86-.42-.61-1.03.31-.76.62-1.53.97-2.42-3.17,1.28-6.05.31-8.93-.49Zm57.38,160.83c-.24.11-.49.23-.73.33-1.35.56-2.74,1.05-4.04,1.7-2.67,1.34-5.18,2.91-6.94,5.41-.59.84-.79,1.77-.17,2.7.56.84,1.8,1.31,2.86.9,1.02-.39,1.98-.96,2.92-1.53,1.38-.82,2.68-1.77,4.08-2.55,1.6-.89,3.27-.92,4.92-.04,1.29.69,2.57,1.42,3.9,2,1.4.61,2.82,1.23,4.3,1.57,2,.47,3.19-.41,3.48-2.43.87-5.92-.49-11.36-3.84-16.27-1.94-2.84-4.28-5.44-7.52-6.65-5.35-2.01-10.99-2.86-16.64-1.81-8.44,1.57-13.39,7.38-16.71,14.84-.31.7-.22,1.72.05,2.47.17.5.93.9,1.51,1.13.71.28,1.02-.35,1.36-.89,3.26-5.25,7.47-9.47,13.28-11.84,1.39-.57,2.9-.85,4.35-1.26.03.09.06.19.09.28-.29.12-.57.26-.87.37-3.05,1.16-5.96,2.59-8.54,4.62-3.44,2.7-6.32,5.88-8.24,9.85-.5,1.02-.7,2.09-.34,3.22.34,1.08,1.16,1.8,2.24,1.86,1.16.07,2.21-.23,2.85-1.31,3.37-5.67,8.18-9.65,14.24-12.15,1.09-.45,2.27-.69,3.41-1.03.03.09.06.18.09.27-.21.09-.42.2-.64.28-5.2,2.04-9.78,5.02-13.53,9.17-.99,1.1-1.9,2.34-2.56,3.66-.96,1.9.33,3.87,2.47,3.89.72,0,1.52-.19,2.13-.55,1.03-.61,1.99-1.39,2.9-2.18,1.91-1.66,3.65-3.53,5.67-5.04,2.39-1.79,5.17-2.83,8.23-3ZM101.73,45.97s.08,0,.12,0c0,.61-.04,1.22,0,1.82.2,2.35,1.18,4.13,3.57,4.95,2.55.87,5.15,1.45,7.86,1.43,2-.02,3.61-.86,4.32-2.76.79-2.09,1.34-4.27,1.95-6.42.25-.88-.15-1.57-.94-1.94-1.06-.49-2.14-1-3.25-1.34-3.32-1.01-6.69-1.8-10.21-1.52-1.91.15-2.75.92-3.09,2.81-.18.98-.23,1.98-.33,2.97Zm-21.06-3.84c.06,0,.11.01.17.02,0,.82-.05,1.65,0,2.46.13,1.83.95,3.27,2.76,3.83,1.66.52,3.37.95,5.08,1.19,2.16.3,3.81-.67,4.63-2.68.6-1.47,1.05-3.04,1.36-4.6.43-2.2-.16-3.28-2.17-4.24-2.92-1.4-6.02-1.98-9.25-1.9-1.12.03-1.82.58-2,1.7-.22,1.41-.4,2.82-.59,4.23Zm9.04,46.76c-3.59,2.88-5.01,6.83-5.43,11.22-.44,4.68.86,10.81,2.66,12.34-2.24-8.33-2.69-16.31,2.77-23.56Z"/>
  <path class="b" d="m86.79,145.69c-4.34,0-8.62,0-12.89,0-1.18,0-2.36-.04-3.53.02-.76.04-1.03-.2-1.14-.98-.87-5.83-1.79-11.64-2.7-17.46-.04-.26-.14-.51-.21-.77-.13.02-.26.04-.4.06.65,6.32,1.3,12.65,1.97,19.05h-18.52c.02-.18,0-.39.07-.58,3.34-10.13,6.8-20.22,11.3-29.91,2.43-5.24,5.48-10.06,10.37-13.37,2.23-1.51,4.63-2.78,6.95-4.16.07.08.15.17.22.25-.22,1.18-.5,2.35-.64,3.54-.59,4.82.42,9.46,1.85,14.01,1.55,4.93,3.35,9.79,4.86,14.73,1.45,4.71,2.51,9.52,2.49,14.5,0,.35-.03.7-.05,1.08Z"/>
  <path class="b" d="m111.75,31.87c1.64.1,3.15.73,4.38,1.97.6.61.89,1.35.37,2.12-.53.79-1.27.55-2.01.28-1.23-.44-2.48-.88-3.74-1.23-.88-.24-1.68-.49-1.72-1.57-.03-.83.71-1.41,1.87-1.54.25-.03.5-.03.85-.05Z"/>
  <path class="b" d="m97.29,31.44c0,1.03-.73,1.63-1.66,1.48-1.47-.23-2.94-.46-4.41-.73-1.14-.21-1.52-1.31-.77-2.17,1.35-1.55,5.66-1.07,6.61.74.13.25.18.53.23.68Z"/>
  <path class="b" d="m100.87,60.91c-2.1.46-4.14.59-6.1-.31-.55-.25-1.09-.55-1.54-.93-.17-.15-.17-.64-.07-.92.05-.12.59-.22.79-.11,2.41,1.33,4.86,1.09,7.35.32.41-.13.87-.09,1.3-.13.03.48.18.99.07,1.43-.5,1.91-1.71,3.19-3.66,3.63-1.03.23-2-.06-2.74-.84-.21-.22-.18-.67-.26-1.01.32.02.69-.06.96.07,1.68.83,2.95.48,3.89-1.2Z"/>
  <path class="b" d="m140.61,54.42c-2.19.55-4,1.65-5.5,3.31,1.51,1.06,1.83,1.85,1.24,3.23-.22-.45-.38-.82-.58-1.16-.6-1.01-1.6-1.09-2.29-.14-.52.72-.97,1.5-1.47,2.23-.23.33-.51.62-.93.81.4-2.91,1.95-5.14,4.18-6.92,1.55-1.24,3.23-2.18,5.35-1.37Z"/>
  <path class="b" d="m108,46.05c.46-.93.78-1.96,1.4-2.75.81-1.04,2.15-.79,2.81.37.74,1.3.36,3.64-.75,4.65-.97.88-2.26.68-2.84-.5-.24-.49-.31-1.07-.46-1.61l-.17-.16Z"/>
  <path class="b" d="m88.37,42.48c.35-.83.56-1.77,1.08-2.48.95-1.31,2.53-1,3.05.54.41,1.21.24,2.41-.36,3.52-.44.81-1.11,1.36-2.09,1.16-.93-.19-1.28-.95-1.45-1.8-.05-.28-.04-.57-.05-.85-.06-.03-.13-.06-.19-.08Z"/>
</svg>