<?xml version="1.0" encoding="UTF-8"?>
<svg id="a" data-name="Layer 1" xmlns="http://www.w3.org/2000/svg" width="393.73" height="411.84" viewBox="0 0 393.73 411.84">
  <defs>
    <style>
      .b {
        stroke-width: 0px;
      }
    </style>
  </defs>
  <path class="b" d="m81.47,389.38c-20.54-6.03-38.74-16.19-55.2-29.58-7.62-6.2-14.21-13.34-19.25-21.83-13.55-22.81-6.68-46.76,13.66-61.28,10.91-7.79,23.26-11.41,36.57-11.99.61-.03,1.23-.05,2-.09-.14-1.72-.31-3.27-.39-4.82-.56-10.65,1.1-21.09,3.35-31.43,5-22.99,12.96-44.93,24.16-65.64,5.24-9.68,11.4-18.75,20.09-25.71,3.94-3.15,8.4-5.64,12.88-8.59-.53-3.19-.27-6.84.93-10.43,2.05-6.14,6.14-10.41,11.95-13.15.63-.3,1.41-.98,1.5-1.58.47-3.31,2.31-5.67,4.93-7.5,5.5-3.86,11.8-5.63,18.34-6.4,4.54-.53,9.15-.48,13.73-.69.55-.02,1.1,0,1.83,0-2.77-8.8-5.1-17.54-10.58-25.02-1.62-2.21-2.86-4.75-3.95-7.28-2.24-5.21-2.54-10.59-.69-16.01-1.81-.59-3.54-1.09-5.23-1.72-.69-.26-1.35-.71-1.87-1.23-.86-.86-.53-1.97.66-2.02,4.9-.22,7.98-3.2,10.83-6.73,1.33-1.65,3.02-3.01,4.49-4.55.59-.62,1.05-1.37,1.57-2.06l-.51-.65c-1.34.69-2.67,1.4-4.04,2.04-.56.26-1.2.37-1.8.55-.03-.69-.31-1.51-.04-2.04,2.97-5.71,7.9-8.44,14.16-8.84,2.09-.13,4.22.28,6.21.44.28-2.04.37-4.18.9-6.21.73-2.8,2.33-5.17,4.77-6.81.62-.42,1.54-.39,2.33-.56-.12.73-.05,1.57-.38,2.18-1.55,2.85-2.67,5.81-2.85,9.29.32-.28.55-.44.71-.64,8.31-10.47,23.12-12.51,33.93-4.67,4.84,3.51,9.59,7.15,15.33,9.16,3.36,1.18,6.74,2.04,10.34,1.32.46-.09,1.24.1,1.44.43.22.34.12,1.23-.18,1.5-1.88,1.68-3.85,3.26-5.85,4.93,4.37,2.22,6.75,6.75,9.49,11.05,1.87,2.94,4.89,3.95,8.37,3.66.73-.06,1.48.21,2.22.33-.26.78-.29,1.89-.82,2.26-1.87,1.31-3.9,2.38-5.9,3.49-.46.25-1.05.25-1.19.28.78,3.65,1.87,7.14,2.22,10.7.49,4.97-.27,9.91-3.31,14.03-1.6,2.16-3.9,3.84-6.01,5.57-.56.46-1.61.32-2.43.46-.01-.76-.04-1.51-.04-2.27,0-.28.07-.56.1-.73-2.18,1.5-4.33,2.97-6.46,4.48-.33.24-.69.61-.79.98-1.92,7.18-4.3,14.18-8.09,20.8,1.39.43,2.61.73,3.77,1.18,1.98.79,3.99,1.55,5.87,2.54,7.44,3.94,10.46,9.91,9.17,18.27-.25,1.63.06,2.41,1.58,3.19,3.12,1.61,5.9,3.67,6.41,7.59.05.37.54.85.92.98,12.31,4.13,20.19,13.2,26.78,23.78,7.1,11.39,13.16,23.32,18.95,35.4,2.45,5.1,4.95,10.18,7.25,15.35.72,1.61,1.63,2.02,3.28,2.01,17.17-.06,34.35-.04,51.52-.04,5.28,0,10.57,0,15.85,0,2.29,0,2.49.3,1.59,2.36-7.18,16.55-14.36,33.09-21.53,49.64-.25.57-.45,1.15-.75,1.91,1.71.25,3.31.44,4.88.73,15.44,2.89,25.71,13.76,28.06,29.82,1.54,10.52-.61,20.4-5.59,29.71-6.34,11.86-15.04,21.83-25.09,30.63-15.21,13.33-32.63,22.98-51.28,30.55-1.27.52-2.55,1.03-4.34,1.76,2.07.65,3.65,1.19,5.26,1.66,3.38.99,6.77,1.95,10.15,2.91,2.08.59,2.29,1.23.91,3.02-3.24,4.2-7.76,6.53-12.54,8.4-10.09,3.93-20.63,6.01-31.32,7.42-25.83,3.41-51.7,3-77.58.57-5.44-.51-10.86-1.34-16.29-1.94-1.17-.13-2.38.04-3.57.12-24.28,1.67-48.53,1.88-72.68-1.76-7.47-1.12-14.9-2.62-21.84-5.72-2.31-1.03-4.53-2.5-6.43-4.18-2.54-2.26-2.24-4.87.47-7.07Zm43.81-140.14c4.15,1.29,8.24,2.33,12.14,3.84,6.08,2.36,11.39,5.87,14.97,11.56.29.46.96.76,1.52.95,2.63.92,5.18,1.92,7.12,4.07.39.43,1.21.57,1.86.62,2.63.24,5.27.34,7.9.58,8.78.82,16.83,3.51,23.66,9.3.31.26.72.42,1.12.65.19-.4.33-.68.45-.96,9.79-22.74,19.62-45.47,29.32-68.25.92-2.15,2.01-2.85,4.3-2.82,8.74.14,17.49.06,26.23.06.67,0,1.34,0,2.18,0,0-.93,0-1.61,0-2.29-.13-9.88-.27-19.75-.4-29.63,0-.56-.09-1.16.07-1.68.1-.33.6-.73.92-.73.32,0,.78.4.92.73.19.44.15.99.16,1.49.18,9.94.35,19.87.52,29.81.01.72,0,1.45,0,2.14h48.45c-.26-.61-.41-1.02-.59-1.4-3.57-7.49-7.07-15.02-10.75-22.46-5.88-11.9-12.01-23.67-19.81-34.46-4.78-6.61-10.77-11.7-18.29-15.01-2.48-1.09-4.35-1.18-6.86.33-11.37,6.81-23.89,10.48-36.91,12.52-2.48.39-4.99.63-7.5.81-.47.03-.99-.52-1.48-.8.42-.45.81-.94,1.29-1.31.21-.16.61-.08.92-.1,9.27-.73,18.36-2.51,27.01-5.86,5.89-2.28,11.49-5.31,17.21-8.03,1.57-.75,1.71-2.05.76-3.26-.95-1.21-2.04-2.67-3.38-3.16-3.94-1.44-4.53-3.85-3.91-7.78.95-6.03-1.6-10.92-7.03-13.84-3.02-1.62-6.37-2.6-9.55-3.93-1.11-.46-1.62.03-2.31.85-2.42,2.88-4.77,5.85-7.51,8.4-3.19,2.97-7.16,3.76-11.44,2.69-.89-.22-1.78-.39-2.75-.6-.52,1.96-.99,3.75-1.35,5.09,4.77,2.69,9.18,5.2,13.61,7.67.36.2,1.04.29,1.31.09,3.61-2.72,7.33-5.32,10.68-8.33,2.32-2.09,2.08-4.06.19-6.65-.28-.38-.13-1.08-.18-1.63.57.03,1.3-.17,1.68.11,1.68,1.29,2.29,3.1,2.07,5.18-.27,2.55-1.65,4.53-3.59,6-4.26,3.21-8.48,6.54-13.03,9.3-6.6,4-13.47,7.57-20.27,11.24-.45.24-1.48-.03-1.93-.42-8.2-7.2-17.04-13.52-26.29-19.28-6.83-4.25-13.7-8.44-20.5-12.75-1.25-.79-2.35-1.91-3.28-3.07-.95-1.19-.53-2.39.93-2.76,1.32-.33,2.73-.39,4.09-.37.46,0,.9.64,1.35.99-.5.36-.95.91-1.5,1.03-.8.18-1.68.05-2.52.05l-.29.76c3.36,2.14,6.71,4.29,10.08,6.4.25.16.71,0,1.07-.05,3.54-.5,7.08-.97,10.61-1.53.51-.08,1.24-.45,1.38-.86,1.56-4.51,3.09-9.04,4.48-13.61.58-1.91-.87-3.87-2.82-3.87-4.52.02-9.07-.07-13.55.37-6.11.61-12,2.25-17.32,5.46-2.61,1.57-4.84,3.59-4.99,6.88-.07,1.59-.65,2.27-2.07,2.84-6.82,2.77-10.94,7.89-12.25,15.1-.38,2.07-.06,4.27-.06,6.63,8.36-2.68,15.9-.74,23.22,2.81,4.02,1.95,8.01,3.93,11.99,5.96,8.84,4.51,18.03,8,27.86,9.64,1.14.19,3.35-.38,3.07,1.45-.3,1.97-2.32.78-3.5.6-10.62-1.65-20.4-5.69-29.93-10.53-5.26-2.67-10.62-5.19-16.07-7.43-5.56-2.28-11.29-2.12-16.96-.06-5.64,2.05-10.55,5.27-15.01,9.23-7,6.23-12.33,13.78-16.84,21.89-11.92,21.43-20.14,44.27-25.28,68.22-2.09,9.73-3.69,19.57-3.06,29.57.9,14.34,6.94,25.85,19.77,32.91,12.93,7.11,27.03,9.97,41.74,10,.44,0,.89-.15,1.44-.25-6.34-7.35-5.45-19.22.36-26.8,6.28-8.19,14.65-11.84,25.21-11.31-1.14-1.48-2.4-2.69-3.78-3.74-10.27-7.82-22.02-10.06-34.58-8.98-6.07.52-11.86,2.19-17.23,5.16-.47.26-1.15.21-1.72.15-.14-.02-.42-.77-.29-.94.35-.48.81-.94,1.33-1.22,5.43-2.96,11.26-4.63,17.4-5.25,1.21-.12,2.42-.24,4.06-.41-4.4-2.9-8.82-4.47-13.55-4.86-3.1-.25-6.25.19-9.38.23-.57,0-1.15-.4-1.72-.62.44-.49.85-1.01,1.35-1.44.21-.18.6-.14.91-.19,8.8-1.32,16.93.49,24.23,5.51,1.99,1.37,3.97,1.54,6.22,1.64.15-.64.36-1.17.41-1.72,1.03-11.14,2.32-22.27,2.99-33.43.72-11.88.21-23.77-.97-35.62-.07-.68.54-1.43.83-2.14.43.64,1.18,1.25,1.26,1.93,1.95,17.96,1.72,35.92-.1,53.87-.58,5.75-1.32,11.48-1.97,17.13Zm254.95-38.23c-1.22,0-2.08,0-2.94,0-49.18,0-98.37.02-147.55,0-1.27,0-1.9.38-2.39,1.55-2.79,6.6-5.68,13.16-8.51,19.74-10.67,24.81-21.32,49.63-31.98,74.45-1.3,3.02-2.55,6.06-3.9,9.31.89,0,1.45,0,2.01,0,7.17-.02,14.34-.05,21.51-.07,42.26-.08,84.53-.16,126.79-.19,1.52,0,2.18-.48,2.75-1.85,2.99-7.19,6.08-14.34,9.15-21.5,9.03-21.07,18.07-42.15,27.12-63.21,2.55-5.94,5.17-11.86,7.95-18.22ZM112.27,404.42c.3.15.45.29.62.31,1.37.19,2.74.37,4.12.53,18.74,2.17,37.52,2.19,56.32,1.25,15.15-.75,30.22-2.15,45.04-5.63,1.91-.45,2.72-1.07,2.53-3.19-.78-9.02-1.15-18.07-2.13-27.06-1.01-9.24-2.65-18.41-5.39-27.34-.39-1.27-.93-1.81-2.35-1.74-3.89.2-7.79.18-11.69.36-.61.03-1.38.48-1.78.98-10.3,12.8-23.49,18.53-39.87,16.05-3.99-.6-7.84-2.1-12.18-3.31-6.78,13.44-18.58,21.46-32.64,26.67,2.74,7.7,1.76,14.95-.59,22.13ZM196.08,61.61c-.43.62-.64,1-.92,1.31-2.4,2.65-4.67,5.43-7.26,7.88-1.81,1.71-2.69,1.24-3.8-.97-1.04-2.05-2.02-4.28-3.59-5.88-3.37-3.42-8.43-2.31-10.45,2-3.2,6.83,3.37,16.45,10.9,16.01.78-.05,1.58.31,2.38.48-.4.71-.71,1.49-1.21,2.12-.5.63-1.28,1.04-1.78,1.67-.68.84-1.44,1.71-1.78,2.71-3.06,9.1-5.99,18.25-9.1,27.34-.51,1.5-.34,2.16.98,2.99,8.43,5.27,16.62,10.9,24.08,17.5,1.29,1.14,2.24,1.28,3.75.43,3.58-2.02,7.28-3.85,11.18-5.88-2.55-2.26-4.84-4.2-7.02-6.26-.52-.49-1.02-1.37-.96-2.03.17-2.05.66-4.08.89-6.13.06-.55-.16-1.38-.56-1.71-7.34-5.94-11.82-14.12-17.03-21.72-.36-.52-.35-1.91.03-2.21,1.05-.83,1.45.29,1.87,1.05.27.49.54,1,.82,1.49,4.69,8.12,11.42,13.78,20.36,16.71,4.16,1.36,7.95.6,11.28-2.24.95-.81,1.87-1.69,2.71-2.62,6.3-6.98,9.99-15.33,12.54-24.24,1.08-3.78,1.92-7.62,2.9-11.54-7.12.99-13.42-.65-19.43-3.64-6.1-3.03-10.07-8.37-14.43-13.81-.2,1.08-.33,1.79-.45,2.5-.52,3.22-1.63,6.23-3.72,8.74-.62.75-1.8,1.04-2.72,1.54-.13-.92-.26-1.84-.38-2.76-.02-.12-.02-.25-.05-.81Zm-4.65,228.84c.79-1.86,1.64-4.02,2.62-6.11.47-.99.29-1.54-.54-2.21-4.6-3.74-9.66-6.54-15.48-7.89-6.48-1.5-13.06-2-19.67-1.78-1.81.06-3.82.52-5.35,1.45-7.24,4.38-11,10.88-10.79,19.42.13,5.19,3.05,8.51,8.21,9.24,2.96.42,6.07.69,9.01.27,5.98-.86,11.33.55,16.52,3.27.94.5,1.92.94,2.91,1.35,4.31,1.81,4.65,1.61,6.51-2.63.57-1.29.28-2-.68-2.87-4.08-3.66-8.68-6.4-13.88-8.17-.85-.29-2.42-.31-1.95-1.73.52-1.56,1.84-.55,2.73-.25,4.99,1.71,9.5,4.27,13.51,7.72.56.48,1.11.96,1.77,1.53.87-1.95,1.7-3.7,2.43-5.49,1.18-2.89,1.76-2.41-1.18-4.29-3.58-2.29-7.45-4.13-11.15-6.25-.57-.33-.88-1.1-1.32-1.67.72-.1,1.44-.29,2.15-.26.47.02.94.33,1.38.57,4.01,2.2,8,4.42,12.23,6.76Zm-44.28,63.09c9.83,4.29,19.51,5.3,29.47,1.93,7.93-2.69,14.36-7.42,19.76-14.56-5.75-2.59-11.08-5.28-16.62-7.41-5.83-2.24-11.54-1.38-16.64,2.33-6.5,4.72-11.31,10.97-15.97,17.72Zm140.74,52.35c-.88-4.39-1.71-8.53-2.55-12.73-.27.05-.65.09-1.01.19-19.74,5.53-39.86,8.35-60.36,8.36-.43,0-.88.04-1.3.14-4.35,1-8.66,2.17-13.04,3-4.53.87-9.12,1.42-13.69,2.11,30.77,3.26,61.49,4.25,91.95-1.07Zm-129.78-135.99c-.63-.37-1.09-.69-1.58-.93-12.85-6.47-29.7.74-33.78,14.54-1.63,5.52-1.41,10.93,1.83,15.94,1.02,1.58,2.34,2.83,4.27,3.13,4.15.65,8.29,1.34,12.46,1.79,1.59.17,3.25-.25,4.87-.4-2.65-1.67-4.65-3.67-5.27-6.46-.6-2.65-1.13-5.55-.66-8.15,1.8-10.04,7.23-17.04,17.87-19.46Zm-46.98,113.73c-4.92,1.63-9.34,3.29-13.88,4.53-4.54,1.23-9.2,2.04-13.81,3.03-2.06.44-2.74,1.86-1.27,3.34,1.56,1.56,3.44,2.99,5.43,3.92,6.67,3.11,13.88,4.38,21.07,5.7,1.18.22,1.53-.32,1.83-1.28,1.37-4.43,2.17-8.93,1.73-13.57-.18-1.9-.72-3.78-1.1-5.67Zm210.44,9.21c-.59-.39-.73-.54-.9-.59-5.34-1.63-10.68-3.26-16.04-4.85-.5-.15-1.12-.12-1.62.04-4.66,1.5-9.31,3.02-13.93,4.64-.5.18-1.17,1.07-1.09,1.52.59,3.57,1.3,7.13,2.1,10.66.09.39,1.02.95,1.44.86,8.19-1.71,16.33-3.63,23.74-7.69,2.2-1.21,4.1-2.96,6.3-4.59Zm-197.26-88.55c2.82,3.59,7.68,6.32,12.69,7,7.17.97,14.36,1.76,21.55,2.54,6.82.74,13.64,1.37,20.47,1.98.61.05,1.57-.27,1.83-.73.74-1.26,1.2-2.69,1.78-4.07-19.34-2.89-38.74-3.58-58.33-6.72Zm31.96,34.03c-.69-.33-1.28-.65-1.91-.9-23.43-9.59-46.87-19.18-70.32-28.73-.86-.35-2.14-1.54-2.75-.05-.61,1.5,1.14,1.53,1.99,1.87,12.15,4.98,24.34,9.88,36.49,14.85,11.05,4.52,22.06,9.11,33.11,13.63,1.07.44,2.41,1.65,3.38-.68Zm103.83-19.71c-.05-.24-.11-.49-.16-.73-1.9.4-3.94.47-5.66,1.25-13.31,5.95-26.56,12.04-39.82,18.08-.29.13-.67.21-.81.44-.23.37-.51.98-.36,1.25.17.31.8.47,1.24.49.33.02.68-.28,1.02-.44,8.12-3.69,16.25-7.36,24.37-11.06,6.74-3.07,13.46-6.18,20.18-9.27Zm-111.22-13.5c.02.13.03.27.05.4,8.58.96,17.17,1.91,26.24,2.92-4.11-2.79-8.2-3.8-12.27-3.65-4.12.16-8.25.01-12.38.03-.55,0-1.09.19-1.64.29Z"/>
  <path class="b" d="m272.8,263.29c0-4.64,3.62-8.36,8.16-8.4,4.59-.04,8.14,3.62,8.13,8.36-.01,4.58-3.73,8.34-8.25,8.33-4.44,0-8.04-3.73-8.04-8.29Z"/>
  <path class="b" d="m178.26,70.84c-1.22-.57-2.3-.99-3.28-1.57-.49-.29-.81-.87-1.21-1.32.5-.29.99-.83,1.49-.83,2.72,0,6.61,4.28,6.41,7.02-.03.35-.38.79-.7.96-.23.12-.76-.03-.98-.24-.35-.32-.55-.8-.61-.9-1.1.26-2.64.92-2.85.63-1.15-1.61.59-2.32,1.74-3.74Z"/>
</svg>