<svg width="45" height="45" viewBox="0 0 98 76" fill="none" xmlns="http://www.w3.org/2000/svg">
<path d="M37.3789 66.168C36.7069 66.168 36.0829 66.008 35.5069 65.688C34.9309 65.368 34.4669 64.808 34.1149 64.008C33.7949 63.208 33.6989 62.088 33.8269 60.648C32.7069 56.872 31.6829 53.112 30.7549 49.368C29.8589 45.624 29.0109 41.768 28.2109 37.8C27.0589 40.424 26.0189 43.112 25.0909 45.864C24.1629 48.584 23.3309 51.16 22.5949 53.592C21.8589 55.992 21.1869 58.008 20.5789 59.64C20.0989 61.08 19.6189 62.152 19.1389 62.856C18.6589 63.528 18.1789 63.96 17.6989 64.152C17.2509 64.376 16.8029 64.488 16.3549 64.488C15.2669 64.488 14.4349 64.232 13.8589 63.72C13.2829 63.208 12.9949 62.28 12.9949 60.936C12.9949 60.232 13.1869 59.16 13.5709 57.72C13.9549 56.248 14.4669 54.568 15.1069 52.68C15.7789 50.76 16.5469 48.76 17.4109 46.68C18.2749 44.568 19.1869 42.52 20.1469 40.536C21.1069 38.552 22.0669 36.76 23.0269 35.16C23.9869 33.528 24.9149 32.232 25.8109 31.272C26.7069 30.312 27.5069 29.832 28.2109 29.832C28.8189 29.832 29.3789 29.896 29.8909 30.024C30.4029 30.12 30.8989 30.408 31.3789 30.888C31.8589 31.336 32.3549 32.088 32.8669 33.144C33.2829 33.944 33.6989 35.096 34.1149 36.6C34.5309 38.072 34.9309 39.768 35.3149 41.688C35.6989 43.576 36.0829 45.56 36.4669 47.64C36.8829 49.72 37.2989 51.752 37.7149 53.736C38.9309 48.2 39.9069 43.336 40.6429 39.144C41.4109 34.92 41.9709 31.608 42.3229 29.208C42.6749 26.808 42.8669 25.544 42.8989 25.416C43.1229 24.488 43.3629 23.848 43.6189 23.496C43.8749 23.112 44.1629 22.888 44.4829 22.824C44.8029 22.728 45.1709 22.68 45.5869 22.68C45.6189 22.68 45.6349 22.68 45.6349 22.68C46.4669 22.68 47.2829 23.016 48.0829 23.688C48.9149 24.36 49.3309 25.272 49.3309 26.424C49.3309 26.808 49.2509 27.672 49.0909 29.016C48.9309 30.328 48.6909 31.992 48.3709 34.008C48.0829 35.992 47.6989 38.2 47.2189 40.632C46.7389 43.032 46.1789 45.544 45.5389 48.168C44.9309 50.76 44.2429 53.336 43.4749 55.896C42.7069 58.456 41.8589 60.856 40.9309 63.096C40.4189 64.376 39.8109 65.208 39.1069 65.592C38.4349 65.976 37.8589 66.168 37.3789 66.168Z" fill="black"/>
<path d="M67.4557 53.4C64.5758 53.4 62.3038 52.52 60.6398 50.76C59.0078 48.968 58.1918 46.424 58.1918 43.128C58.1918 41.336 58.4318 39.24 58.9118 36.84C59.3918 34.408 60.0158 31.848 60.7838 29.16C61.5838 26.44 62.4318 23.752 63.3278 21.096C64.2558 18.44 65.1678 15.976 66.0638 13.704C66.9598 11.432 67.7438 9.528 68.4158 7.992C68.9918 6.808 69.8078 6.216 70.8638 6.216C71.5358 6.216 72.0798 6.424 72.4958 6.84C72.9438 7.256 73.1678 7.928 73.1678 8.856C73.1678 9.304 72.9438 10.28 72.4958 11.784C72.0478 13.288 71.4558 15.144 70.7198 17.352C70.0158 19.528 69.2478 21.88 68.4158 24.408C67.6158 26.936 66.8478 29.48 66.1118 32.04C65.4078 34.6 64.8318 37.016 64.3838 39.288C63.9358 41.528 63.7118 43.432 63.7118 45C63.7118 45.64 63.8878 46.152 64.2398 46.536C64.6238 46.92 65.1198 47.112 65.7278 47.112C67.0398 47.112 68.3838 46.872 69.7598 46.392C71.1678 45.912 72.5438 45.304 73.8878 44.568C75.2638 43.832 76.5598 43.048 77.7758 42.216C78.9918 41.384 80.0798 40.6 81.0398 39.864C82.0318 39.096 82.8318 38.488 83.4398 38.04C84.2398 37.432 84.7838 37.128 85.0718 37.128C86.1598 37.128 86.7038 37.656 86.7038 38.712C86.7038 38.968 86.3838 39.496 85.7438 40.296C85.1998 41 84.4318 41.896 83.4398 42.984C82.4478 44.072 81.2958 45.224 79.9838 46.44C78.7038 47.624 77.3278 48.744 75.8558 49.8C74.4158 50.856 72.9758 51.72 71.5358 52.392C70.0958 53.064 68.7358 53.4 67.4557 53.4Z" fill="black"/>
</svg>
