<!DOCTYPE svg PUBLIC "-//W3C//DTD SVG 1.1//EN" "http://www.w3.org/Graphics/SVG/1.1/DTD/svg11.dtd">

<!-- Uploaded to: SVG Repo, www.svgrepo.com, Transformed by: SVG Repo Mixer Tools -->
<svg fill="currentColor" version="1.1" id="Layer_1" xmlns:x="&amp;ns_extend;" xmlns:i="&amp;ns_ai;" xmlns:graph="&amp;ns_graphs;" xmlns="http://www.w3.org/2000/svg" xmlns:xlink="http://www.w3.org/1999/xlink" width="64px" height="64px" viewBox="0 0 24 24" enable-background="new 0 0 24 24" xml:space="preserve">

<g id="SVGRepo_bgCarrier" stroke-width="0"/>

<g id="SVGRepo_tracerCarrier" stroke-linecap="round" stroke-linejoin="round"/>

<g id="SVGRepo_iconCarrier"> <metadata> <sfw> <slices> </slices> <slicesourcebounds width="505" height="984" bottomleftorigin="true" x="0" y="-984"> </slicesourcebounds> </sfw> </metadata> <g> <g> <g> <path d="M15,24c-0.3,0-0.5-0.1-0.7-0.3l-14-14C0.1,9.5,0,9.1,0,8.8c0.1-0.3,0.3-0.6,0.6-0.7l22-8c0.4-0.1,0.8,0,1,0.2 c0.3,0.3,0.4,0.7,0.2,1l-8,22c-0.1,0.3-0.4,0.6-0.7,0.6C15.1,24,15.1,24,15,24z M2.8,9.4l11.8,11.8l6.7-18.5L2.8,9.4z"/> </g> </g> <g> <g> <path d="M6,15c-0.3,0-0.6-0.1-0.8-0.4c-0.3-0.4-0.3-1.1,0.2-1.4l17-13c0.4-0.3,1.1-0.3,1.4,0.2c0.3,0.4,0.3,1.1-0.2,1.4l-17,13 C6.4,14.9,6.2,15,6,15z"/> </g> </g> <g> <g> <path d="M6,23c-0.6,0-1-0.4-1-1v-8c0-0.6,0.4-1,1-1s1,0.4,1,1v8C7,22.6,6.6,23,6,23z"/> </g> </g> <g> <g> <path d="M6,23c-0.2,0-0.4-0.1-0.6-0.2c-0.4-0.3-0.5-1-0.1-1.4L8.8,17c0.3-0.4,1-0.5,1.4-0.1c0.4,0.3,0.5,1,0.1,1.4l-3.6,4.4 C6.6,22.9,6.3,23,6,23z"/> </g> </g> </g> </g>

</svg>