<?xml version="1.0" ?>
<!-- Uploaded to: SVG Repo, www.svgrepo.com, Generator: SVG Repo Mixer Tools -->
<svg fill="#000000" width="800px" height="800px" viewBox="-1.63 0 32.805 32.805" xmlns="http://www.w3.org/2000/svg">
<g transform="translate(-676.778 -386.057)">
<path d="M705.326,418.862H677.778a1,1,0,0,1,0-2h27.548a1,1,0,0,1,0,2Z"/>
<path d="M684.4,418.862a1,1,0,0,1-.02-2c.2,0,19.95-.567,19.95-12.846,0-12.253-12.145-12.633-12.662-12.643a1,1,0,0,1,.018-2h.017c.146,0,14.627.409,14.627,14.643s-21.691,14.841-21.909,14.846Z"/>
<path d="M687.742,388.057a1.812,1.812,0,0,1,1.81,1.81v11.949a1.81,1.81,0,0,1-3.621,0V389.867a1.812,1.812,0,0,1,1.811-1.81m0-2a3.821,3.821,0,0,0-3.811,3.81v11.949a3.81,3.81,0,0,0,7.621,0V389.867a3.821,3.821,0,0,0-3.81-3.81Z"/>
<path d="M694.861,410.276H681.176a1,1,0,0,1,0-2h13.685a1,1,0,0,1,0,2Z"/>
</g>
</svg>